<?xml version="1.0" encoding="UTF-8"?>
<svg version="1.1" xmlns="http://www.w3.org/2000/svg" width="460" height="460">
<path d="M0 0 C3.38856324 7.23789428 3.94091843 14.6873677 4.70678711 22.53512573 C6.89630823 44.74109832 10.45208901 65.26354162 21.15234375 85.140625 C22.02831686 86.77009474 22.90174925 88.40093228 23.77294922 90.03295898 C24.6530075 91.67945301 25.53972244 93.32241196 26.43408203 94.96118164 C32.51758961 106.32153734 35.26820997 117.57651897 32.19140625 130.359375 C28.03685064 141.91737745 21.38595098 153.37962452 13.8984375 163.10546875 C12.24100424 166.60049105 13.90559693 169.70939353 15.046875 173.22265625 C16.18533423 177.73450083 16.29477372 181.8083446 16.25 186.4375 C16.25483398 187.31494873 16.25966797 188.19239746 16.26464844 189.09643555 C16.24179948 193.29645474 16.06002847 197.23369168 15.125 201.3359375 C13.42925181 208.18811238 13.42925181 208.18811238 14.921875 214.90039062 C17.65314174 218.99307581 20.99503557 222.53381195 24.33837891 226.12792969 C31.71248422 234.43598721 37.53090204 244.47988992 41 255 C41.31710937 255.92039062 41.63421875 256.84078125 41.9609375 257.7890625 C44.10711248 265.25145073 44.27673946 272.52337892 44.3125 280.25 C44.31805908 281.26803711 44.32361816 282.28607422 44.3293457 283.33496094 C44.27038307 289.51343848 43.5572423 295.01919689 42 301 C43.57297852 300.86368164 43.57297852 300.86368164 45.17773438 300.72460938 C49.0986681 300.38572397 53.01997545 300.05134165 56.94140625 299.71826172 C58.63291641 299.57396686 60.32432531 299.42847954 62.015625 299.28173828 C64.45807127 299.0700404 66.90085938 298.86274952 69.34375 298.65625 C70.08991577 298.59062866 70.83608154 298.52500732 71.6048584 298.45739746 C86.42721203 297.22116491 86.42721203 297.22116491 90 300 C94.98941968 307.02214621 94.55079948 314.65253892 94 323 C93.07783458 326.68267358 91.71585216 329.28414784 89 332 C86.53308105 332.31643677 86.53308105 332.31643677 83.38867188 332.41064453 C82.21405396 332.45053497 81.03943604 332.49042542 79.82922363 332.53152466 C77.91828918 332.58166214 77.91828918 332.58166214 75.96875 332.6328125 C74.66675659 332.67437469 73.36476318 332.71593689 72.02331543 332.75875854 C68.5587912 332.86920347 65.09402747 332.96799725 61.62908936 333.06445312 C58.10276517 333.16473445 54.57679898 333.27627098 51.05078125 333.38671875 C31.27859228 334 31.27859228 334 28 334 C27.86464844 334.58007812 27.72929687 335.16015625 27.58984375 335.7578125 C25.80788605 342.22407816 23.33819863 345.12138532 18 349 C17.21238281 349.63421875 16.42476563 350.2684375 15.61328125 350.921875 C9.30625 356 9.30625 356 7 356 C7.3609375 356.77601563 7.721875 357.55203125 8.09375 358.3515625 C11.6423684 366.61195756 13.42395304 374.00478444 12 383 C10.70183377 385.93374129 9.56240477 386.81922998 7 389 C6.39929688 389.55429687 5.79859375 390.10859375 5.1796875 390.6796875 C0.42137097 395 0.42137097 395 -2 395 C-2 395.66 -2 396.32 -2 397 C-13.50837827 406.39659904 -23.37242939 412.50339843 -38.70556641 411.30126953 C-43.73026249 410.64150416 -48.59882199 409.24628555 -53.44091797 407.77954102 C-61.12842784 405.46901082 -67.13781728 405.66550005 -74.8125 408.1875 C-75.51681152 408.40946045 -76.22112305 408.6314209 -76.94677734 408.86010742 C-80.94045462 410.1639876 -84.4786679 411.69605517 -88.125 413.8125 C-97.15980927 418.60185542 -108.34600797 416.27080042 -117.86328125 413.96875 C-124.67717126 411.86433565 -129.2017776 408.8720581 -132.73046875 402.6171875 C-134.04801988 399.90100516 -135.27965459 397.15436537 -136.4777832 394.38354492 C-137.08071274 392.99180309 -137.69269386 391.60395092 -138.31323242 390.2199707 C-139.78707786 386.91774259 -141.07370506 383.75661975 -142.125 380.28515625 C-143.62863355 376.18305596 -144.77491025 373.99718341 -148 371 C-155.91081007 367.61714696 -164.56280764 366.39770572 -173 365 C-174.96011261 364.63405725 -176.91977581 364.26569626 -178.87890625 363.89453125 C-182.81216856 363.17916605 -186.69564718 362.65677785 -190.6875 362.375 C-191.70199219 362.30023438 -192.71648437 362.22546875 -193.76171875 362.1484375 C-194.50035156 362.09945313 -195.23898438 362.05046875 -196 362 C-196.185625 362.78375 -196.37125 363.5675 -196.5625 364.375 C-201.47835422 376.77150193 -212.17689478 387.51986755 -223 395 C-223.73476562 395.51175781 -224.46953125 396.02351563 -225.2265625 396.55078125 C-242.57683053 407.77913196 -263.22044521 411.45623799 -283.5 407.875 C-300.51384192 404.06646216 -314.54599082 396.24002276 -327 384 C-327.93972656 383.07960938 -327.93972656 383.07960938 -328.8984375 382.140625 C-342.20596417 368.05030265 -348.83809694 347.97838353 -349.3125 328.8125 C-348.34568397 304.96437123 -339.63601383 284.76712024 -322.25 268.3125 C-305.57053386 253.9016475 -284.59685836 246.57151834 -262.59521484 248.17529297 C-251.85833065 249.31788234 -241.97258067 251.88407356 -232 256 C-231.731875 255.12214844 -231.46375 254.24429688 -231.1875 253.33984375 C-229.71845959 249.20816759 -227.63742437 245.65727636 -225.4375 241.87890625 C-219.65195657 230.29209781 -219.81058302 212.92524613 -223.8125 200.6875 C-227.31334092 192.5122408 -232.08968547 184.90928274 -236.64404297 177.28808594 C-242.61433384 167.2136232 -247.40855615 157.1596796 -251 146 C-251.33 145.01 -251.66 144.02 -252 143 C-253.81578934 124.56629045 -248.15672778 106.76171593 -242.12402344 89.54418945 C-235.90816625 71.39115514 -235.01167946 54.67677966 -237.75 35.8125 C-237.90662109 34.71921387 -238.06324219 33.62592773 -238.22460938 32.49951172 C-239.23445703 26.10090803 -240.75036003 20.4069919 -243.30175781 14.4440918 C-244.13805701 11.51675218 -243.99177904 9.86665314 -243 7 C-240 5 -240 5 -238.01171875 5.03125 C-225.48885717 7.55686914 -214.87721156 12.99741073 -205 21 C-204.30519531 21.53109375 -203.61039063 22.0621875 -202.89453125 22.609375 C-183.07413903 38.59228609 -173.5878956 65.58812439 -164.27600098 88.3609314 C-159.5326574 99.94173854 -154.56094959 111.31103653 -148 122 C-138.69267111 121.60825466 -129.54265656 120.75294882 -120.3125 119.5 C-97.12979156 116.38754998 -74.32295912 116.70600079 -51 118 C-41.81468814 100.44367697 -38.20594325 81.18880552 -34.62329102 61.87451172 C-32.17740925 48.86000276 -29.44210566 35.318249 -23.125 23.5625 C-22.78694336 22.90983154 -22.44888672 22.25716309 -22.10058594 21.5847168 C-19.17913731 16.06710689 -15.81160207 10.94635384 -12 6 C-10.8553125 4.4840625 -10.8553125 4.4840625 -9.6875 2.9375 C-6.71592198 -0.4743118 -4.35128965 -0.09459325 0 0 Z " fill="#020201" transform="translate(356,12)"/>
<path d="M0 0 C12.38164684 5.5059384 19.5133876 22.88646555 24.1875 34.8125 C28.7311976 46.87228205 31.40747109 59.40318539 34 72 C34.20012695 72.94053223 34.40025391 73.88106445 34.60644531 74.85009766 C34.79045898 75.73101074 34.97447266 76.61192383 35.1640625 77.51953125 C35.32600098 78.29014893 35.48793945 79.0607666 35.65478516 79.85473633 C36 82 36 82 36 86 C36.66 86 37.32 86 38 86 C37.10212098 53.85786582 37.10212098 53.85786582 27.24609375 23.50390625 C26.83488281 22.67761719 26.42367187 21.85132812 26 21 C26.33 20.34 26.66 19.68 27 19 C37.12836403 33.69169288 44.06355272 48.82554494 50.484375 65.39453125 C50.91258545 66.48999268 51.3407959 67.5854541 51.78198242 68.71411133 C52.61090716 70.84118437 53.42948253 72.97233185 54.2355957 75.1081543 C56.71195155 81.46864674 59.68412594 86.99059619 63.54467773 92.625 C67.23006323 98.6393315 66.88454744 106.20695207 66 113 C64.31754385 117.67546961 61.70305919 121.84887339 59 126 C65.04437213 124.34787162 69.51645409 122.58544468 74 118 C74.67586423 116.62949754 75.34203919 115.25418708 76 113.875 C77.70998874 110.99787609 78.72507872 110.11326907 81.86328125 108.8203125 C102.37266369 103.94265643 121.17324061 108.89342396 140.69921875 115.30078125 C142.91815008 116.09692458 142.91815008 116.09692458 145 116 C143.59234375 115.04287109 143.59234375 115.04287109 142.15625 114.06640625 C140.9373786 113.23194814 139.71863516 112.39730309 138.5 111.5625 C137.87996094 111.14162109 137.25992188 110.72074219 136.62109375 110.28710938 C135.06289602 109.21691863 133.52921949 108.11120482 132 107 C132 106.67 132 106.34 132 106 C151.3828062 102.78047336 168.71706473 101.80346478 188 106 C189.0415625 106.20882812 190.083125 106.41765625 191.15625 106.6328125 C203.01268776 109.86948373 210.46315954 122.23284026 217.76171875 131.359375 C220.92093423 135.08647738 224.39353637 138.44581624 227.93359375 141.80859375 C231.21099925 145.28425441 232.27613754 147.80024665 232.1875 152.5625 C232.17783203 153.70912109 232.17783203 153.70912109 232.16796875 154.87890625 C232 157 232 157 231 160 C230.30777344 160.03996094 229.61554688 160.07992187 228.90234375 160.12109375 C217.81622106 161.30419775 209.84398401 166.97219147 200.8828125 173.1484375 C195.28993015 176.94416098 191.82994461 179.1982359 185 178 C182.5 176.5 182.5 176.5 181 175 C179.34445879 176.65554121 179.5775379 178.74649455 179.31640625 181.0234375 C179.19330078 182.044375 179.07019531 183.0653125 178.94335938 184.1171875 C178.69040657 186.28090684 178.44038377 188.44497082 178.19335938 190.609375 C178.06896484 191.63289062 177.94457031 192.65640625 177.81640625 193.7109375 C177.70756104 194.65243652 177.59871582 195.59393555 177.48657227 196.56396484 C177 199 177 199 175 202 C175 202.66 175 203.32 175 204 C176.175625 203.505 177.35125 203.01 178.5625 202.5 C183.06042977 200.81228122 187.2000279 200.27717534 191.93115234 201.49853516 C204.21560268 204.47614443 217.57722216 201.94511721 229.3125 198.09375 C234.66126803 196.50725101 234.66126803 196.50725101 238 197 C239.95703125 199.01269531 239.95703125 199.01269531 241.8125 201.828125 C242.49570312 202.85679687 243.17890625 203.88546875 243.8828125 204.9453125 C244.58148438 206.03585938 245.28015625 207.12640625 246 208.25 C246.69867188 209.29414063 247.39734375 210.33828125 248.1171875 211.4140625 C261.59123422 232.00647353 263.58700142 254.95274245 260 279 C255.32798795 280.20568053 250.78503708 280.09382426 246 280 C243.13609892 274.14202052 241.9877064 268.42590164 241 262 C237.6433937 272.06981891 240.82572232 282.20313501 243.80859375 291.93359375 C246.68559407 301.61949483 244.44912339 307.20668538 240 316 C236.00662978 322.34241153 229.64003037 326.66716622 223 330 C219.6414081 330.68685242 217.23241223 330.03880955 214 329 C212.93652344 328.69320313 211.87304688 328.38640625 210.77734375 328.0703125 C183.65939922 319.65939922 183.65939922 319.65939922 179 315 C178.91330568 313.5112814 178.89296506 312.018555 178.90234375 310.52734375 C178.90556641 309.62822266 178.90878906 308.72910156 178.91210938 307.80273438 C178.92048828 306.85720703 178.92886719 305.91167969 178.9375 304.9375 C178.94201172 303.98810547 178.94652344 303.03871094 178.95117188 302.06054688 C178.9629989 299.70696935 178.97947975 297.35351523 179 295 C179.51272461 294.75467529 180.02544922 294.50935059 180.55371094 294.2565918 C197.33144194 286.12130821 209.29885481 277.22234254 219 261 C220.78519091 255.64442728 221.10620507 250.64629269 218.89453125 245.35546875 C213.02228741 235.45240074 204.07465427 226.99996566 195 220 C196.12459671 221.77108948 197.24969203 223.54186236 198.375 225.3125 C199.00148438 226.29863281 199.62796875 227.28476562 200.2734375 228.30078125 C201.49651613 230.21287929 202.7409356 232.1114034 204 234 C204.3125 237.5625 204.3125 237.5625 204 241 C197.73922578 245.17384948 189.54015304 244.16138754 182.2578125 244.2109375 C179.95181576 244.23900115 177.64582626 244.26766558 175.33984375 244.296875 C171.7303077 244.33811001 168.12090775 244.37502986 164.51123047 244.40136719 C161.00981288 244.42908415 157.50899599 244.47494535 154.0078125 244.5234375 C152.93878693 244.52669037 151.86976135 244.52994324 150.76834106 244.53329468 C144.32391686 244.63818834 138.96886644 245.53196401 133 248 C138.93395463 240.77605523 149.45571753 238.71797818 158 236 C157.43152344 235.85304688 156.86304688 235.70609375 156.27734375 235.5546875 C149.88153384 233.69680616 144.47718562 231.12560693 140.9375 225.23046875 C138.32266355 219.46022869 137.87716514 214.26457776 138 208 C134.85775348 210.54539522 134.25504009 212.99702112 133.375 216.875 C133.13523437 217.90367187 132.89546875 218.93234375 132.6484375 219.9921875 C132.43445313 220.98476563 132.22046875 221.97734375 132 223 C131.82364014 223.78439453 131.64728027 224.56878906 131.46557617 225.37695312 C131.00423325 227.97614995 130.88579921 230.3401267 130.90234375 232.9765625 C130.90556641 233.894375 130.90878906 234.8121875 130.91210938 235.7578125 C130.92048828 236.70398438 130.92886719 237.65015625 130.9375 238.625 C130.94426758 240.05585938 130.94426758 240.05585938 130.95117188 241.515625 C130.95987332 243.28077446 130.97063188 245.04591586 130.98413086 246.81103516 C131.02143799 251.95712401 131.02143799 251.95712401 130 254 C125.5 252.5 125.5 252.5 121 251 C121.4846875 251.53367187 121.969375 252.06734375 122.46875 252.6171875 C126.88159457 257.52223396 131.08456383 262.53412013 135.140625 267.73828125 C136.97929368 270.06100524 136.97929368 270.06100524 139.234375 272.16796875 C141 274 141 274 141 276 C141.58136719 276.25652344 142.16273438 276.51304687 142.76171875 276.77734375 C145.20406142 278.11146811 146.82365447 279.62072773 148.8125 281.5625 C151.68408526 284.2606338 154.39452029 286.29201772 157.921875 288 C166.29538633 292.10682938 166.29538633 292.10682938 169 295 C170.5644781 300.24821376 170.36472569 304.72112488 169 310 C161.72471021 323.06388992 143.12869315 331.05840951 129.6875 336.2890625 C122.96350205 338.06779451 116.84478776 337.83408556 110.5 334.875 C103.28527812 330.51309079 98.64721646 323.87421518 94 317 C93.40574219 316.14019531 92.81148438 315.28039062 92.19921875 314.39453125 C86.90782143 305.49604054 88.03838554 295.00510696 90.5 285.3125 C90.7784375 284.38050781 91.056875 283.44851563 91.34375 282.48828125 C92.17001086 279.78426967 92.17001086 279.78426967 92 276 C90.35 278.31 88.7 280.62 87 283 C83.83793799 281.66788492 82.40142301 280.55689952 80.7734375 277.54296875 C80.38663818 276.84872803 79.99983887 276.1544873 79.60131836 275.43920898 C79.1966333 274.69614502 78.79194824 273.95308105 78.375 273.1875 C71.96371832 261.8927975 64.02310666 248.01155333 52 242 C52 241.34 52 240.68 52 240 C53.32 239.67 54.64 239.34 56 239 C50.11493715 236.26021283 44.37739195 236.37192352 38 237 C31.32432683 239.91302102 26.96347901 246.43018707 24.125 253 C23.75375 253.99 23.3825 254.98 23 256 C20.40638355 254.05478767 18.21345364 252.28206374 16.25 249.6875 C13.00647641 245.81329126 9.04410426 242.9985132 5 240 C5.33004535 233.72913828 8.03281181 228.73291385 12 224 C23.38017161 215.02600829 34.96075226 212.71950441 49 211 C47.94039062 210.81824219 46.88078125 210.63648438 45.7890625 210.44921875 C44.40092035 210.1959766 43.01290588 209.94203383 41.625 209.6875 C40.92632812 209.56955078 40.22765625 209.45160156 39.5078125 209.33007812 C37.65144974 208.98201011 35.82201946 208.49747273 34 208 C30.85413505 203.28120257 31.07972655 198.508007 32 193 C34.3665915 188.6993533 37.55479681 185.44520319 41 182 C45.65242876 181.36595219 49.79664037 181.43515772 54.0625 183.4375 C56.96056338 185.77464789 56.96056338 185.77464789 57.4375 188.5 C56.62448107 195.00415143 51.85704271 199.8804418 48 205 C61.08056048 211.38312008 75.0441206 215.03274424 89 219 C83.39 216.03 77.78 213.06 72 210 C72 209.67 72 209.34 72 209 C85.00055792 208.43747586 97.64704751 210.78663729 110.3125 213.4375 C111.82589966 213.74530396 111.82589966 213.74530396 113.36987305 214.05932617 C114.31644775 214.26533447 115.26302246 214.47134277 116.23828125 214.68359375 C117.507323 214.95514282 117.507323 214.95514282 118.80200195 215.23217773 C122.01920747 216.35603771 123.49584008 217.99168017 125 221 C125 216.71 125 212.42 125 208 C122.03 208.99 122.03 208.99 119 210 C115.27516379 210.39078996 111.55601895 210.32459929 107.8125 210.3125 C106.83474609 210.32861328 105.85699219 210.34472656 104.84960938 210.36132812 C94.70784701 210.36803121 83.07645685 208.4268579 75.24609375 201.43359375 C69.00265651 194.70873484 68.77999498 187.84485361 68.83203125 178.98828125 C68.97277009 176.48443913 69.27414158 174.38662248 70 172 C62.25798419 172.38577055 55.32328775 173.42388772 48 176 C48.33 175.34 48.66 174.68 49 174 C48.39671875 173.87882813 47.7934375 173.75765625 47.171875 173.6328125 C45.97304687 173.38144531 45.97304687 173.38144531 44.75 173.125 C43.96109375 172.96257812 43.1721875 172.80015625 42.359375 172.6328125 C40.03168856 172.00849925 38.10968048 171.15161458 36 170 C36.60901119 166.98116939 37.55554377 164.86780915 39.28515625 162.328125 C39.73310547 161.66425781 40.18105469 161.00039062 40.64257812 160.31640625 C41.11115234 159.63449219 41.57972656 158.95257813 42.0625 158.25 C42.77116211 157.20392578 42.77116211 157.20392578 43.49414062 156.13671875 C44.65757281 154.42095007 45.82809974 152.70999602 47 151 C45.01472978 151 43.28024096 153.07974088 41.8125 154.25 C40.2087175 155.50049285 38.60457004 156.75051784 37 158 C36.42121094 158.45890625 35.84242188 158.9178125 35.24609375 159.390625 C32.97100116 161.07763882 31.59452605 162.04878162 28.71484375 161.8125 C14.95989872 157.69591213 3.36217448 145.79510181 -4 134 C-4.53367187 133.18273437 -5.06734375 132.36546875 -5.6171875 131.5234375 C-14.43659289 115.42926835 -8.32107277 90.83871651 -4.08203125 74.3046875 C-2.91622271 69.71995182 -1.84932416 65.11544715 -0.8125 60.5 C-0.64572754 59.77087402 -0.47895508 59.04174805 -0.30712891 58.29052734 C1.72528865 49.16031447 2.18644461 40.42206186 2.18530273 31.07348633 C2.18749133 29.0704336 2.20601808 27.06742077 2.22460938 25.06445312 C2.23517798 18.02223847 1.807333 11.80407717 0 5 C-0.125 1.9375 -0.125 1.9375 0 0 Z " fill="#2A353D" transform="translate(128,36)"/>
<path d="M0 0 C1.43956055 -0.01836914 1.43956055 -0.01836914 2.90820312 -0.03710938 C19.47906386 -0.07104288 34.13776593 7.21160025 46.28125 18.22265625 C57.52008772 29.80695005 64.00569512 45.39550588 64.625 61.4375 C64.11318565 79.84056379 57.06677408 95.95079597 44.28515625 109.15234375 C39.17671137 113.92649367 33.39358052 117.0461506 27.1875 120.1875 C26.15625 120.765 25.125 121.3425 24.0625 121.9375 C10.82313274 127.69374664 -8.59512165 127.60065765 -22.00390625 122.5078125 C-41.90036192 113.15454126 -53.28914908 99.50479797 -60.8125 79.1875 C-64.96768988 62.08357885 -62.43885083 44.30042065 -53.5 29.375 C-43.62831427 14.93739539 -30.75679589 4.624796 -13.4465332 0.64331055 C-8.98201726 -0.12925885 -4.52022208 0.00299948 0 0 Z " fill="#AADFEA" transform="translate(86.8125,277.8125)"/>
<path d="M0 0 C1.78664063 0.82661133 1.78664063 0.82661133 3.609375 1.66992188 C12.35870477 5.77990955 12.35870477 5.77990955 13.5 8.0625 C8.53926578 9.38536246 3.58888488 9.15143197 -1.5 9.0625 C-1.5 9.7225 -1.5 10.3825 -1.5 11.0625 C-0.83790527 11.16699463 -0.17581055 11.27148926 0.50634766 11.37915039 C20.05548961 14.67050005 48.46373499 22.15997998 60.94140625 38.796875 C61.45574219 39.54453125 61.97007812 40.2921875 62.5 41.0625 C63.90734395 42.84075143 65.32423395 44.61148467 66.75 46.375 C67.37390625 47.17550781 67.9978125 47.97601563 68.640625 48.80078125 C70.47929368 51.12350524 70.47929368 51.12350524 72.734375 53.23046875 C74.5 55.0625 74.5 55.0625 74.5 57.0625 C75.08136719 57.31902344 75.66273438 57.57554687 76.26171875 57.83984375 C78.70406142 59.17396811 80.32365447 60.68322773 82.3125 62.625 C85.18408526 65.3231338 87.89452029 67.35451772 91.421875 69.0625 C99.79538633 73.16932938 99.79538633 73.16932938 102.5 76.0625 C104.0644781 81.31071376 103.86472569 85.78362488 102.5 91.0625 C95.22471021 104.12638992 76.62869315 112.12090951 63.1875 117.3515625 C56.46350205 119.13029451 50.34478776 118.89658556 44 115.9375 C36.78527812 111.57559079 32.14721646 104.93671518 27.5 98.0625 C26.90574219 97.20269531 26.31148438 96.34289062 25.69921875 95.45703125 C20.40782143 86.55854054 21.53838554 76.06760696 24 66.375 C24.2784375 65.44300781 24.556875 64.51101563 24.84375 63.55078125 C25.67001086 60.84676967 25.67001086 60.84676967 25.5 57.0625 C23.85 59.3725 22.2 61.6825 20.5 64.0625 C17.33793799 62.73038492 15.90142301 61.61939952 14.2734375 58.60546875 C13.88663818 57.91122803 13.49983887 57.2169873 13.10131836 56.50170898 C12.6966333 55.75864502 12.29194824 55.01558105 11.875 54.25 C5.46371832 42.9552975 -2.47689334 29.07405333 -14.5 23.0625 C-14.5 22.4025 -14.5 21.7425 -14.5 21.0625 C-13.18 20.7325 -11.86 20.4025 -10.5 20.0625 C-16.38506285 17.32271283 -22.12260805 17.43442352 -28.5 18.0625 C-35.17567317 20.97552102 -39.53652099 27.49268707 -42.375 34.0625 C-42.74625 35.0525 -43.1175 36.0425 -43.5 37.0625 C-46.09361645 35.11728767 -48.28654636 33.34456374 -50.25 30.75 C-53.49352359 26.87579126 -57.45589574 24.0610132 -61.5 21.0625 C-61.16995465 14.79163828 -58.46718819 9.79541385 -54.5 5.0625 C-37.0357201 -8.70919944 -19.44371094 -9.30057507 0 0 Z " fill="#C97728" transform="translate(194.5,254.9375)"/>
<path d="M0 0 C1.95370749 2.17181229 3.39584858 4.55123787 4.875 7.0625 C13.62559449 21.00931781 13.62559449 21.00931781 27 30 C30.67154446 30.64276375 34.27586349 30.92469577 38 31 C37.505 31.99 37.505 31.99 37 33 C35.515 33.495 35.515 33.495 34 34 C48.14846864 34.23807519 61.28944387 25.51622614 73.17333984 18.73291016 C84.34544903 12.39538351 92.52750887 11.95742247 104.8125 15.25 C105.69196289 15.47743896 106.57142578 15.70487793 107.47753906 15.93920898 C113.0632167 17.40866396 118.529973 19.09468552 123.97265625 21.03125 C128.51846434 22.48590859 133.16707208 23.52809822 137.83496094 24.51782227 C139.82421875 24.97265625 139.82421875 24.97265625 143 26 C144.84635873 31.53907618 146.41332469 37.41296857 144 43 C139.10588024 48.55401759 132.33647058 52.30928831 126 56 C125.19949219 56.48259277 124.39898437 56.96518555 123.57421875 57.46240234 C112.87032348 63.73227123 102.50489723 60.60839775 91 58 C93.66666667 55.33333333 96.33333333 52.66666667 99 50 C83.67808316 52.2755322 56.41337693 56.58662307 45 68 C36.1041867 69.2579938 30.1300834 66.40433843 22.875 61.58984375 C16.11374184 56.00388242 13.92419015 47.85568926 10.9140625 39.91796875 C6.10776899 27.34380762 -1.31757849 19.02722006 -11 10 C-10.01 12.97 -9.02 15.94 -8 19 C-14.5102661 18.5951062 -20.9372366 18.0716277 -27.375 17 C-34.56479497 15.82076802 -41.73010982 15.38209658 -49 15 C-48.34 11.04 -47.68 7.08 -47 3 C-45.9584375 2.81824219 -44.916875 2.63648438 -43.84375 2.44921875 C-42.39581568 2.19541319 -40.94790049 1.94149848 -39.5 1.6875 C-38.73768066 1.55432373 -37.97536133 1.42114746 -37.18994141 1.28393555 C-33.30435736 0.60057557 -29.42533792 -0.10344842 -25.5546875 -0.8671875 C-24.49991211 -1.07347778 -24.49991211 -1.07347778 -23.42382812 -1.28393555 C-21.47688658 -1.66743106 -19.53136742 -2.05812717 -17.5859375 -2.44921875 C-10.87087129 -3.48061781 -6.00577532 -3.46272661 0 0 Z " fill="#AF5B25" transform="translate(212,351)"/>
<path d="M0 0 C7.17682223 3.39019412 11.20757958 7.95369679 13.890625 15.39453125 C18.37629709 30.67062193 18.07305251 48.62894344 15.73828125 64.28125 C11.0662692 65.48693053 6.52331833 65.37507426 1.73828125 65.28125 C-1.12561983 59.42327052 -2.27401235 53.70715164 -3.26171875 47.28125 C-6.61832505 57.35106891 -3.43599643 67.48438501 -0.453125 77.21484375 C2.42387532 86.90074483 0.18740464 92.48793538 -4.26171875 101.28125 C-8.25508897 107.62366153 -14.62168838 111.94841622 -21.26171875 115.28125 C-24.62031065 115.96810242 -27.02930652 115.32005955 -30.26171875 114.28125 C-31.85693359 113.82105469 -31.85693359 113.82105469 -33.484375 113.3515625 C-60.60231953 104.94064922 -60.60231953 104.94064922 -65.26171875 100.28125 C-65.34841307 98.7925314 -65.36875369 97.299805 -65.359375 95.80859375 C-65.35615234 94.90947266 -65.35292969 94.01035156 -65.34960938 93.08398438 C-65.34123047 92.13845703 -65.33285156 91.19292969 -65.32421875 90.21875 C-65.31970703 89.26935547 -65.31519531 88.31996094 -65.31054688 87.34179688 C-65.29871985 84.98821935 -65.282239 82.63476523 -65.26171875 80.28125 C-64.74899414 80.03592529 -64.23626953 79.79060059 -63.70800781 79.5378418 C-46.93027681 71.40255821 -34.96286394 62.50359254 -25.26171875 46.28125 C-24.13433063 42.89908563 -24.29912425 40.58483875 -24.44921875 37.03125 C-24.53727598 26.40934698 -21.56284545 16.93105576 -17.26171875 7.28125 C-18.65390625 8.0546875 -18.65390625 8.0546875 -20.07421875 8.84375 C-23.26171875 10.28125 -23.26171875 10.28125 -26.26171875 9.28125 C-24.30483916 7.80012554 -22.34630438 6.32128653 -20.38671875 4.84375 C-19.55333984 4.21243164 -19.55333984 4.21243164 -18.703125 3.56835938 C-12.72062276 -0.93653689 -7.4060914 -2.35357654 0 0 Z " fill="#CB7828" transform="translate(372.26171875,250.71875)"/>
<path d="M0 0 C1.09570312 0.47566406 2.19140625 0.95132813 3.3203125 1.44140625 C10.47389039 4.77098732 16.10932301 8.31810893 21.81640625 13.88671875 C26.26663173 18.19364537 29.80074451 20.54970552 35.8125 22.25 C36.97394531 22.58515625 38.13539063 22.9203125 39.33203125 23.265625 C40.65267578 23.62914062 40.65267578 23.62914062 42 24 C42.99 19.545 42.99 19.545 44 15 C47.22981983 18.22981983 48.22295378 20.85355881 50 25 C51.10649669 27.02478463 51.10649669 27.02478463 53 28 C59.0548738 28.81507917 62.05264967 27.10421981 67 24 C67.66 24 68.32 24 69 24 C67.68139111 28.61513112 65.78644563 32.09897612 63 36 C64.32 36.66 65.64 37.32 67 38 C64.41677531 40.53063996 63.18607055 40.9918919 59.50390625 41.15234375 C56.87875558 41.00924832 54.25375243 40.86341995 51.62890625 40.71484375 C47.36944876 41.04954816 45.91476699 41.94083171 43 45 C39.10650875 51.86483983 38.42998643 61.30241348 37 69 C35.27428639 65.98454253 34.71902341 63.6946087 34.5859375 60.234375 C34.54726562 59.34492188 34.50859375 58.45546875 34.46875 57.5390625 C34.4378125 56.61867187 34.406875 55.69828125 34.375 54.75 C34.33632812 53.81414062 34.29765625 52.87828125 34.2578125 51.9140625 C34.16375156 49.60956946 34.07810601 47.30507987 34 45 C33.24074219 45.32355469 32.48148437 45.64710938 31.69921875 45.98046875 C26.69174179 47.36056536 21.98243767 47.32920956 16.8125 47.3125 C15.83474609 47.32861328 14.85699219 47.34472656 13.84960938 47.36132812 C3.70784701 47.36803121 -7.92354315 45.4268579 -15.75390625 38.43359375 C-21.99734349 31.70873484 -22.22000502 24.84485361 -22.16796875 15.98828125 C-22.02722991 13.48443913 -21.72585842 11.38662248 -21 9 C-28.74201581 9.38577055 -35.67671225 10.42388772 -43 13 C-38.98529864 5.84335845 -32.94713052 0.70309183 -25.125 -1.9375 C-16.31792851 -4.13585428 -8.28498059 -3.62629213 0 0 Z " fill="#030303" transform="translate(219,199)"/>
<path d="M0 0 C0.66 0 1.32 0 2 0 C23.25796913 26.43416608 31.44838431 65.72625887 32 99 C32.01514648 99.82902832 32.03029297 100.65805664 32.04589844 101.51220703 C32.08552039 104.07072245 32.11009163 106.6287262 32.125 109.1875 C32.12983398 109.96561035 32.13466797 110.7437207 32.13964844 111.54541016 C32.12570236 116.13068 31.75495224 120.47627827 31 125 C25.7598127 123.2532709 23.39505744 117.70744481 20.9453125 112.953125 C19.68481432 110.14401477 19 108.10515276 19 105 C18.34 105 17.68 105 17 105 C15.05980271 113.97341248 15.27234113 121.64310141 19.125 130.00390625 C20 132 20 132 20 134 C11.94154779 131.55804479 7.29444157 125.6860727 3.28515625 118.59765625 C1.42755782 114.84293602 0.09207014 111.03830253 -1 107 C-1.17352997 106.37721161 -1.34705994 105.75442322 -1.52584839 105.11276245 C-2.30549943 101.63873134 -2.14190922 98.11382584 -2.1328125 94.5703125 C-2.13376923 93.74352997 -2.13472595 92.91674744 -2.13571167 92.06491089 C-2.13639184 90.31150232 -2.13454893 88.55809122 -2.13037109 86.8046875 C-2.12508861 84.16921031 -2.13028594 81.53390892 -2.13671875 78.8984375 C-2.1421074 67.05529568 -1.98723927 55.32374261 0.0625 43.625 C2.21360521 29.43412684 1.747683 14.23113303 0 0 Z " fill="#EBA091" transform="translate(134,42)"/>
<path d="M0 0 C2.36149494 2.24093814 4.25967118 4.63071713 6.1875 7.25 C11.62456536 14.2324553 17.67522631 19.02359727 25.25 23.5 C25.85271729 23.86295166 26.45543457 24.22590332 27.07641602 24.59985352 C30.41271684 26.50367295 30.41271684 26.50367295 34.15625 26.88671875 C36.32547966 25.84346635 38.26286171 24.67419009 40.25 23.3125 C41.02730469 22.78011719 41.80460937 22.24773437 42.60546875 21.69921875 C46.1239667 19.20240536 49.57907268 16.62861445 53 14 C51.71861398 16.66872929 50.3221184 19.12313551 48.65234375 21.56640625 C47.99202148 22.5419043 47.99202148 22.5419043 47.31835938 23.53710938 C46.39472864 24.89185487 45.47024352 26.24601825 44.54492188 27.59960938 C43.8865332 28.57317383 43.8865332 28.57317383 43.21484375 29.56640625 C42.81386475 30.15365479 42.41288574 30.74090332 41.99975586 31.34594727 C40.82923299 33.14546522 40.82923299 33.14546522 40 36 C44.70973649 37.76615118 49.03083364 38.48594831 54 39 C54 39.66 54 40.32 54 41 C55.0725 40.505 56.145 40.01 57.25 39.5 C62.74329953 37.39555252 68.20371629 37.73916723 74 38 C73.96519531 39.12277344 73.93039063 40.24554688 73.89453125 41.40234375 C73.25622363 54.29704121 73.25622363 54.29704121 78.37109375 65.7265625 C87.16872077 74.29211782 99.79131866 75.18020549 111.375 75.1875 C112.39078125 75.19974609 113.4065625 75.21199219 114.453125 75.22460938 C115.94199219 75.22750977 115.94199219 75.22750977 117.4609375 75.23046875 C118.35603027 75.23457764 119.25112305 75.23868652 120.17333984 75.24291992 C123.75424247 75.02600982 123.75424247 75.02600982 130 73 C130 78.28 130 83.56 130 89 C127 85 127 85 127 83 C125.92363281 82.81824219 124.84726563 82.63648438 123.73828125 82.44921875 C116.81751492 81.26312008 109.94911192 80.04604309 103.125 78.375 C94.30678078 76.27490041 86.07629871 76 77 76 C82.94 78.97 88.88 81.94 95 85 C91.21168075 86.26277308 89.77179848 85.52629674 86.00390625 84.3046875 C84.80443359 83.91796875 83.60496094 83.53125 82.36914062 83.1328125 C81.42905151 82.8219873 81.42905151 82.8219873 80.4699707 82.50488281 C78.6038377 81.88865049 76.73261737 81.28789254 74.86132812 80.6875 C67.07237554 78.15059794 59.50725401 75.27699661 52 72 C52 68.44848895 52.54465213 68.06567271 54.875 65.5625 C57.99172849 62.19733663 59.78066287 59.53535988 60.4375 54.9375 C60.28490319 51.91288597 60.28490319 51.91288597 58.125 50.125 C53.65938542 48.51737875 49.67113903 47.93124339 45 49 C42.413927 50.98318482 40.73460593 53.26330754 39 56 C38.34 56.99 37.68 57.98 37 59 C36.71994066 61.90564633 36.71994066 61.90564633 36.8125 65.0625 C36.82216797 66.65771484 36.82216797 66.65771484 36.83203125 68.28515625 C36.82027434 70.96648787 36.82027434 70.96648787 38 73 C40.32156597 73.40729228 42.6568787 73.74438677 45 74 C45 74.33 45 74.66 45 75 C44.0821875 75.03738281 43.164375 75.07476562 42.21875 75.11328125 C35.15900001 75.49148214 29.4764024 76.18948575 23 79 C22.01 79 21.02 79 20 79 C20.0314209 77.93640259 20.0314209 77.93640259 20.06347656 76.85131836 C20.64907684 53.99252278 17.13648145 36.09968024 5.75 16.1875 C2.81038186 11.01565846 1.27613737 5.78739491 0 0 Z " fill="#0B151A" transform="translate(124,170)"/>
<path d="M0 0 C1.26166992 0.00012085 1.26166992 0.00012085 2.54882812 0.00024414 C10.20236578 0.0698884 17.64189202 0.75563067 24.9375 3.1875 C24.9375 4.1775 24.9375 5.1675 24.9375 6.1875 C26.04609375 6.28546875 27.1546875 6.3834375 28.296875 6.484375 C29.76051184 6.6344916 31.22404876 6.78558465 32.6875 6.9375 C33.41710937 6.999375 34.14671875 7.06125 34.8984375 7.125 C38.27140344 7.49295992 40.61065738 7.95648287 43.40234375 9.9296875 C45.80557575 13.46421191 45.79833411 16.31081311 45.63671875 20.49609375 C44.77976522 23.79464672 43.83972552 24.70306163 41.0625 26.625 C39.38403804 27.53646526 37.67326131 28.3905457 35.9375 29.1875 C35.12152344 29.57550781 34.30554688 29.96351563 33.46484375 30.36328125 C23.37715336 34.75965979 13.85605414 35.49554698 2.9375 35.1875 C4.5875 32.5475 6.2375 29.9075 7.9375 27.1875 C7.22207031 27.331875 6.50664062 27.47625 5.76953125 27.625 C-13.80520893 31.2715234 -13.80520893 31.2715234 -19.4375 27.66796875 C-19.97375 27.17941406 -20.51 26.69085938 -21.0625 26.1875 C-20.7325 24.8675 -20.4025 23.5475 -20.0625 22.1875 C-15.03761671 20.57771249 -10.5606756 19.87385519 -5.25 19.625 C-0.48875814 19.57187258 -0.48875814 19.57187258 3.9375 18.1875 C4.4325 16.7025 4.4325 16.7025 4.9375 15.1875 C3.9475 14.6925 3.9475 14.6925 2.9375 14.1875 C6.4025 13.6925 6.4025 13.6925 9.9375 13.1875 C0.51797654 9.76221874 -9.90850736 10.02659425 -19.0625 14.1875 C-23.64391231 16.90415005 -27.77807995 19.8701461 -31.5 23.6875 C-35.50422285 27.59405888 -40.26229323 30.34743728 -45.0625 33.1875 C-45.72636719 33.59355469 -46.39023437 33.99960937 -47.07421875 34.41796875 C-49.68458224 35.4282666 -51.55344788 35.17553317 -54.3125 34.8125 C-55.20453125 34.70164062 -56.0965625 34.59078125 -57.015625 34.4765625 C-57.69109375 34.38117188 -58.3665625 34.28578125 -59.0625 34.1875 C-58.7325 35.5075 -58.4025 36.8275 -58.0625 38.1875 C-64.72753723 37.68762221 -69.66729435 34.58270565 -74.3125 29.9375 C-77.52157307 24.89467089 -80.0625 20.22951891 -80.0625 14.1875 C-77.0925 14.5175 -74.1225 14.8475 -71.0625 15.1875 C-72.0525 16.1775 -73.0425 17.1675 -74.0625 18.1875 C-60.37667742 18.76103925 -60.37667742 18.76103925 -47.0625 16.1875 C-46.1653125 15.89230469 -45.268125 15.59710938 -44.34375 15.29296875 C-36.20973876 12.38649756 -28.60485418 8.56509271 -20.95385742 4.578125 C-19.72372925 3.94390625 -19.72372925 3.94390625 -18.46875 3.296875 C-17.73978516 2.91499023 -17.01082031 2.53310547 -16.25976562 2.13964844 C-10.99505224 -0.14172736 -5.63231076 -0.00500107 0 0 Z " fill="#C97728" transform="translate(310.0625,368.8125)"/>
<path d="M0 0 C0.33 0 0.66 0 1 0 C1.02578125 1.21816406 1.0515625 2.43632812 1.078125 3.69140625 C1.13443941 5.31513835 1.19178597 6.93883489 1.25 8.5625 C1.26417969 9.36236328 1.27835938 10.16222656 1.29296875 10.98632812 C1.60091387 18.53098363 4.34245542 23.67355316 9.30859375 29.44921875 C15.81931033 35.41862864 22.78553179 39.31081239 31.62109375 39.140625 C40.54012372 38.6133917 47.39449333 34.29829626 55 30 C55.66 29.67 56.32 29.34 57 29 C56.690625 29.598125 56.38125 30.19625 56.0625 30.8125 C54.89790296 33.08956772 54.89790296 33.08956772 54 36 C55.64913882 34.54540569 57.29421782 33.08620743 58.9375 31.625 C59.85402344 30.81289063 60.77054687 30.00078125 61.71484375 29.1640625 C64.45595426 26.56820742 64.90842894 25.73256848 65.375 22 C65.2963635 15.74839795 61.71284102 9.94430603 57.6875 5.375 C57.130625 4.92125 56.57375 4.4675 56 4 C56.33 3.34 56.66 2.68 57 2 C57.68964844 2.51949219 58.37929688 3.03898437 59.08984375 3.57421875 C64.8574386 7.85442288 70.60861596 11.71751141 77 15 C77.10883596 17.37625177 77.18766696 19.74743976 77.25 22.125 C77.28351563 22.79015625 77.31703125 23.4553125 77.3515625 24.140625 C77.4528686 29.30723588 76.26062671 32.05233277 73 36 C62.86231824 45.59905731 43.93834534 56.98711 29.8125 57.5 C22.48492653 57.28185844 16.70508959 54.76901284 11.52832031 49.50292969 C8.01493513 45.57024214 4.95066695 41.36465994 2 37 C1.40574219 36.14019531 0.81148437 35.28039062 0.19921875 34.39453125 C-5.14093022 25.41405537 -3.90303274 14.84792657 -1.5 5.0625 C-1.0182541 3.36969844 -0.52550305 1.67973295 0 0 Z " fill="#B25D26" transform="translate(220,316)"/>
<path d="M0 0 C1.5 1.375 1.5 1.375 3 3 C3 3.66 3 4.32 3 5 C3.99 5.33 4.98 5.66 6 6 C7.17141803 8.1626179 8.13190046 10.2337458 9.0625 12.5 C9.35705078 13.19053467 9.65160156 13.88106934 9.95507812 14.5925293 C11.86173823 19.11012452 13.65786505 23.6678491 15.43359375 28.23828125 C15.85825928 29.32367188 16.2829248 30.4090625 16.72045898 31.52734375 C17.55300326 33.66485868 18.37473037 35.806629 19.18383789 37.953125 C21.67736214 44.37219952 24.64903147 49.94847237 28.546875 55.6315918 C32.23333209 61.64004613 31.88380111 69.2126837 31 76 C29.31754385 80.67546961 26.70305919 84.84887339 24 89 C30.04437213 87.34787162 34.51645409 85.58544468 39 81 C39.67586423 79.62949754 40.34203919 78.25418708 41 76.875 C42.70998874 73.99787609 43.72507872 73.11326907 46.86328125 71.8203125 C58.12960447 69.14089248 72.90441259 67.92406993 84 72 C84.33 72.66 84.66 73.32 85 74 C87.0842567 74.90492584 87.0842567 74.90492584 89.62109375 75.65625 C90.55630859 75.95660156 91.49152344 76.25695312 92.45507812 76.56640625 C93.43927734 76.87449219 94.42347656 77.18257813 95.4375 77.5 C97.37545069 78.10903381 99.3117442 78.72337361 101.24609375 79.34375 C102.10904053 79.61380859 102.9719873 79.88386719 103.86108398 80.16210938 C106 81 106 81 108 83 C100.00743069 82.18719634 100.00743069 82.18719634 96.24609375 81.48828125 C89.22074233 80.19678901 82.37545174 79.78561476 75.25 79.75 C74.37504883 79.740896 73.50009766 79.73179199 72.59863281 79.72241211 C63.6589047 79.76381539 56.87384891 80.44087779 50.125 86.75 C37.58835505 98 37.58835505 98 31 98 C30.67 97.01 30.34 96.02 30 95 C29.24074219 95.2165625 28.48148438 95.433125 27.69921875 95.65625 C26.70535156 95.9346875 25.71148437 96.213125 24.6875 96.5 C23.70136719 96.7784375 22.71523437 97.056875 21.69921875 97.34375 C19 98 19 98 16 98 C16.12987305 97.45617676 16.25974609 96.91235352 16.39355469 96.35205078 C22.28933075 70.88905488 17.34720355 51.46062277 8.609375 27.4140625 C8.20726807 26.30530762 7.80516113 25.19655273 7.39086914 24.05419922 C6.60807053 21.90479846 5.81854553 19.75783146 5.02124023 17.61376953 C2.8784384 11.77855834 1.19638163 6.10217931 0 0 Z " fill="#31444A" transform="translate(163,73)"/>
<path d="M0 0 C1.28080392 3.84241177 0.30805584 5.22117203 -1 9 C-4.0790412 26.0316195 -1.87980227 44.13510675 1.0234375 61.046875 C4.37921845 80.61505835 4.37921845 80.61505835 4.4375 90.125 C4.4473291 90.82818359 4.4571582 91.53136719 4.46728516 92.25585938 C4.38405599 97.20136061 3.13510501 100.63917545 1 105 C-2.49308011 103.70626662 -5.44878772 102.1586598 -8.5625 100.125 C-14.07643017 96.7318122 -19.81113165 94.80774505 -26 93 C-25.3806003 88.96652816 -24.03410866 85.84308346 -22.25 82.1875 C-17.63278653 71.98993926 -16.03501735 60.93497778 -14 50 C-6.42253791 9.7127725 -6.42253791 9.7127725 0 0 Z " fill="#28343C" transform="translate(344,40)"/>
<path d="M0 0 C0.33 0 0.66 0 1 0 C1.01458252 1.27528564 1.02916504 2.55057129 1.04418945 3.86450195 C1.10260229 8.64146562 1.17982929 13.4179789 1.26245117 18.19458008 C1.29549973 20.25342443 1.32359265 22.31235502 1.34643555 24.37133789 C1.54220555 41.55327947 2.30477074 57.00953285 15 70 C17.58450118 71.82265195 20.24243569 73.45357436 23 75 C22.6390625 74.26136719 22.278125 73.52273437 21.90625 72.76171875 C18.02616981 64.27943233 16.53082473 57.41758379 19 48.3125 C19.33 47.549375 19.66 46.78625 20 46 C20.66 46 21.32 46 22 46 C22.30292969 46.78503906 22.60585937 47.57007813 22.91796875 48.37890625 C26.55224629 58.64191347 26.55224629 58.64191347 34 66 C34.33 56.43 34.66 46.86 35 37 C42.25375225 47.88062838 42.52844759 61.37942812 42 74 C41.4921875 76.421875 41.4921875 76.421875 41 78 C34.25 77.125 34.25 77.125 32 76 C32.495 82.93 32.495 82.93 33 90 C21.10364398 88.80288241 10.90416435 81.73467438 3 73 C-1.63978604 66.84638547 -4.18521832 60.44191049 -6 53 C-6.185625 52.37480469 -6.37125 51.74960938 -6.5625 51.10546875 C-9.48115761 37.05942899 -6.57657342 13.15314685 0 0 Z " fill="#040303" transform="translate(131,101)"/>
<path d="M0 0 C14.89585856 5.90333031 27.55407863 15.47689729 34.75 30.08984375 C40.52355648 44.52373495 42.56044779 61.29075022 36.75 76.08984375 C29.23049523 91.88786433 18.36753867 104.19626537 1.6875 110.65234375 C-2.7991453 112.24012865 -2.7991453 112.24012865 -6.25 111.08984375 C-5.57195312 110.76113281 -4.89390625 110.43242187 -4.1953125 110.09375 C10.0875782 102.79404547 19.14104789 92.61795079 24.92578125 77.671875 C30.23369906 61.04375333 28.88749271 44.94242495 21 29.33984375 C12.57227686 14.84415995 -0.20760882 6.49942194 -16.125 1.83984375 C-22.04029275 0.50575645 -28.21374477 0.41200344 -34.25 0.08984375 C-25.45864153 -4.94040535 -9.31430882 -2.87102985 0 0 Z " fill="#FAFDFD" transform="translate(106.25,284.91015625)"/>
<path d="M0 0 C14.95742799 4.79175088 22.25884168 18.37973179 29.63867188 31.18408203 C30.89473915 33.32154461 32.2470321 35.3900197 33.609375 37.4609375 C37.2104306 43.53771883 36.70165805 48.9147089 36.609375 55.8359375 C30.669375 56.3309375 30.669375 56.3309375 24.609375 56.8359375 C25.269375 54.1959375 25.929375 51.5559375 26.609375 48.8359375 C28.589375 48.8359375 30.569375 48.8359375 32.609375 48.8359375 C32.609375 48.1759375 32.609375 47.5159375 32.609375 46.8359375 C31.73539063 46.46082031 31.73539063 46.46082031 30.84375 46.078125 C28.31854678 44.67425328 26.80359077 43.08993411 24.859375 40.9609375 C18.29891447 34.31667547 10.93940626 32.15263545 2.15625 29.58520508 C-1.08892964 28.62714521 -3.55069831 27.72922196 -6.390625 25.8359375 C-5.16684206 30.88404211 -1.92282075 33.22951393 1.9296875 36.3828125 C2.48398438 36.86234375 3.03828125 37.341875 3.609375 37.8359375 C3.609375 38.1659375 3.609375 38.4959375 3.609375 38.8359375 C-0.350625 38.8359375 -4.310625 38.8359375 -8.390625 38.8359375 C-9.21085112 36.48421907 -10.0218904 34.1299524 -10.828125 31.7734375 C-11.05822266 31.11666016 -11.28832031 30.45988281 -11.52539062 29.78320312 C-15.22002181 18.91349108 -15.22002181 18.91349108 -13.66772461 15.02514648 C-12.58645137 13.12766511 -11.40728038 11.36464506 -10.140625 9.5859375 C-9.73199219 8.97492188 -9.32335937 8.36390625 -8.90234375 7.734375 C-3.48786221 -0.23936309 -3.48786221 -0.23936309 0 0 Z " fill="#F8F8F8" transform="translate(173.390625,285.1640625)"/>
<path d="M0 0 C14.810993 2.4303753 29.1922421 9.73658401 39.85449219 20.12963867 C42.72834272 22.92882447 45.55631459 24.97230366 49 27 C55.33031098 32.8264699 58.89154559 38.9567804 59.5625 47.5625 C59.38035874 51.9338902 57.97637796 54.6419685 54.90234375 57.73046875 C52.00419934 59.6645487 49.74594955 59.97879163 46.3046875 59.66015625 C41.68964434 58.33822016 38.85844125 55.79257237 36 52 C31.9325603 44.31930121 30.19061546 36.64701033 30 28 C29.01 28.66 28.02 29.32 27 30 C26.443125 28.99839844 25.88625 27.99679687 25.3125 26.96484375 C21.04609075 19.4630506 17.18714208 13.03759317 10 8 C9.10152344 7.36320312 8.20304688 6.72640625 7.27734375 6.0703125 C5.49857515 4.82442394 3.70902105 3.59370992 1.90625 2.3828125 C1.2771875 1.92648437 0.648125 1.47015625 0 1 C0 0.67 0 0.34 0 0 Z " fill="#D79A27" transform="translate(211,273)"/>
<path d="M0 0 C1.99015038 3.71843886 2.69919905 7.31075891 3.375 11.4375 C6.55194963 29.20309878 13.86765131 44.55164294 22.47363281 60.26708984 C26.91564751 68.39421439 27.45106666 77.32456638 25.1640625 86.26953125 C22.27997504 93.65395653 17.9047226 99.81737201 13 106 C9.22507715 104.25103155 7.28852689 102.55116242 5 99 C3.28316198 93.42027645 4.42809858 90.17773911 6.9921875 85.2109375 C13.15555734 71.68974631 7.95953739 56.49989331 3.69140625 43.359375 C-0.88642303 29.17621312 -0.23614885 14.73932153 0 0 Z " fill="#D16F5C" transform="translate(351,58)"/>
<path d="M0 0 C19.33620822 -0.40377233 19.33620822 -0.40377233 27 2 C27.65742188 2.19851562 28.31484375 2.39703125 28.9921875 2.6015625 C40.31507855 7.10343485 48.57277697 21.04241311 55.73583984 30.39770508 C57.03887808 32.0492771 58.40337635 33.63327336 59.78125 35.22265625 C62 38 62 38 62.625 41.0625 C61.98436277 44.07349498 61.24890582 45.74641448 58.9140625 47.78125 C51.85132157 52.27834218 43.3516517 54.30908798 35.3125 56.375 C34.61729248 56.55490479 33.92208496 56.73480957 33.20581055 56.92016602 C28.24977887 58.12488944 28.24977887 58.12488944 26 57 C26.61488281 56.55269531 27.22976563 56.10539062 27.86328125 55.64453125 C34.92423436 50.68784818 34.92423436 50.68784818 38.33984375 43.11328125 C38.79144105 36.97816668 36.71891125 32.20788348 34.19140625 26.69921875 C33.19472883 24.44117252 32.49726455 22.40630317 32 20 C33.32 20.33 34.64 20.66 36 21 C27.56799993 8.83073983 19.35984229 4.46110476 4.75 1.75 C3.16814252 1.49082561 1.58530566 1.23717171 0 1 C0 0.67 0 0.34 0 0 Z " fill="#32454B" transform="translate(291,143)"/>
<path d="M0 0 C7.16427648 3.38426775 11.16194897 7.93426568 13.890625 15.3359375 C17.18673073 26.78876569 18.54623719 38.26301765 13.73828125 49.28125 C13.40828125 49.28125 13.07828125 49.28125 12.73828125 49.28125 C12.24328125 41.85625 12.24328125 41.85625 11.73828125 34.28125 C10.74828125 35.27125 9.75828125 36.26125 8.73828125 37.28125 C8.62758301 36.69110107 8.51688477 36.10095215 8.40283203 35.49291992 C7.89673133 32.81680054 7.38013235 30.14281297 6.86328125 27.46875 C6.68925781 26.53998047 6.51523437 25.61121094 6.3359375 24.65429688 C6.16191406 23.76162109 5.98789062 22.86894531 5.80859375 21.94921875 C5.65148926 21.12703857 5.49438477 20.3048584 5.33251953 19.45776367 C4.78859137 17.01441798 4.78859137 17.01441798 2.73828125 14.28125 C-3.42628351 14.65867233 -6.4354739 16.43995308 -11.26171875 20.28125 C-10.27171875 20.61125 -9.28171875 20.94125 -8.26171875 21.28125 C-8.94878906 22.02890625 -9.63585937 22.7765625 -10.34375 23.546875 C-11.25399985 24.54158102 -12.16415088 25.53637748 -13.07421875 26.53125 C-13.52603516 27.02238281 -13.97785156 27.51351563 -14.44335938 28.01953125 C-16.40008159 30.16192783 -18.26408203 32.28453142 -19.9609375 34.640625 C-20.60482422 35.45273437 -20.60482422 35.45273437 -21.26171875 36.28125 C-21.92171875 36.28125 -22.58171875 36.28125 -23.26171875 36.28125 C-24.34984476 30.86852063 -24.02098533 27.07461975 -22.51171875 21.78125 C-22.16625 20.5334375 -21.82078125 19.285625 -21.46484375 18 C-20.26383645 14.28779562 -18.85635716 10.83711035 -17.26171875 7.28125 C-18.18984375 7.796875 -19.11796875 8.3125 -20.07421875 8.84375 C-23.26171875 10.28125 -23.26171875 10.28125 -26.26171875 9.28125 C-24.30483916 7.80012554 -22.34630438 6.32128653 -20.38671875 4.84375 C-19.83113281 4.42287109 -19.27554687 4.00199219 -18.703125 3.56835938 C-12.72062276 -0.93653689 -7.4060914 -2.35357654 0 0 Z " fill="#D59827" transform="translate(372.26171875,250.71875)"/>
<path d="M0 0 C1.94005302 2.91007953 2.67435059 4.91264058 3.5859375 8.2421875 C3.8751709 9.29792969 4.1644043 10.35367188 4.46240234 11.44140625 C4.76355957 12.57449219 5.0647168 13.70757812 5.375 14.875 C5.68518066 16.04160156 5.99536133 17.20820312 6.31494141 18.41015625 C10.61562649 34.88526109 13.7173722 50.9517462 14 68 C14.01514648 68.82902832 14.03029297 69.65805664 14.04589844 70.51220703 C14.08552039 73.07072245 14.11009163 75.6287262 14.125 78.1875 C14.12983398 78.96561035 14.13466797 79.7437207 14.13964844 80.54541016 C14.12570236 85.13068 13.75495224 89.47627827 13 94 C7.7598127 92.2532709 5.39505744 86.70744481 2.9453125 81.953125 C1.68481432 79.14401477 1 77.10515276 1 74 C0.34 74 -0.32 74 -1 74 C-0.83773926 72.8958374 -0.67547852 71.7916748 -0.50830078 70.65405273 C0.11887719 65.60890038 0.14382487 60.61336547 0.1328125 55.53515625 C0.13376923 54.54358017 0.13472595 53.55200409 0.13571167 52.53038025 C0.1363895 50.43683814 0.13456301 48.34329388 0.13037109 46.24975586 C0.12506876 43.10330259 0.13030297 39.95699545 0.13671875 36.81054688 C0.13888261 26.84606382 0.04777945 16.93337891 -0.73849487 6.99537659 C-1.09895529 2.19791057 -1.09895529 2.19791057 0 0 Z " fill="#D2705D" transform="translate(152,73)"/>
<path d="M0 0 C0.66 0.33 1.32 0.66 2 1 C1.46890625 1.43570312 0.9378125 1.87140625 0.390625 2.3203125 C-6.65092774 8.00061715 -6.65092774 8.00061715 -10.41015625 15.9765625 C-10.67886065 19.65574577 -10.21474498 21.70212794 -8.0625 24.6875 C2.4690942 32.63992827 12.74470787 36.21397477 26 35 C31.60437545 33.86264145 35.77501747 31.95240301 40 28 C40.66 28.33 41.32 28.66 42 29 C37.8874683 36.37246536 33.1241293 40.5734756 26 45 C25.01 45.66 24.02 46.32 23 47 C11.51547443 46.80859124 -12.61104142 40.38895858 -21 32 C-21.08669432 30.5112814 -21.10703494 29.018555 -21.09765625 27.52734375 C-21.09443359 26.62822266 -21.09121094 25.72910156 -21.08789062 24.80273438 C-21.07951172 23.85720703 -21.07113281 22.91167969 -21.0625 21.9375 C-21.05798828 20.98810547 -21.05347656 20.03871094 -21.04882812 19.06054688 C-21.0370011 16.70696935 -21.02052025 14.35351523 -21 12 C-20.43490723 11.70754395 -19.86981445 11.41508789 -19.28759766 11.11376953 C-16.73136334 9.7880615 -14.17816553 8.45660789 -11.625 7.125 C-10.73554688 6.66480469 -9.84609375 6.20460938 -8.9296875 5.73046875 C-7.65351563 5.06337891 -7.65351563 5.06337891 -6.3515625 4.3828125 C-5.56604004 3.97434082 -4.78051758 3.56586914 -3.97119141 3.14501953 C-1.86103134 2.03187615 -1.86103134 2.03187615 0 0 Z " fill="#B05C25" transform="translate(328,319)"/>
<path d="M0 0 C1.39767403 1.18203289 2.77216203 2.39190475 4.125 3.625 C5.35283203 4.71554687 5.35283203 4.71554687 6.60546875 5.828125 C20.65735949 19.00841586 29.35046748 37.52686032 30.41015625 56.80078125 C31.12998578 79.47026993 22.76141269 98.61680188 8.125 115.625 C7.13839108 116.63821411 6.14374498 117.64410313 5.125 118.625 C4.465 118.295 3.805 117.965 3.125 117.625 C3.63289063 117.09132813 4.14078125 116.55765625 4.6640625 116.0078125 C19.20716218 100.26640499 25.5454423 81.59343273 25.33984375 60.37109375 C24.19176087 40.35270314 15.89401199 21.3514935 1.125 7.625 C-15.83947024 -5.63733938 -33.30360535 -11.84650589 -54.875 -11.375 C-55.79667969 -11.36984375 -56.71835938 -11.3646875 -57.66796875 -11.359375 C-65.05994193 -11.04625057 -71.38754323 -8.5754815 -78.17578125 -5.84765625 C-81.38272427 -4.5709746 -84.58963181 -3.42937398 -87.875 -2.375 C-67.14142256 -26.14103944 -21.55522872 -15.99624868 0 0 Z " fill="#171717" transform="translate(133.875,279.375)"/>
<path d="M0 0 C7.47221179 -0.38513525 7.47221179 -0.38513525 11.10253906 2.09008789 C12.35253906 5.21508789 12.35253906 5.21508789 12.35253906 15.21508789 C-0.18746094 15.21508789 -12.72746094 15.21508789 -25.64746094 15.21508789 C-25.64746094 14.88508789 -25.64746094 14.55508789 -25.64746094 14.21508789 C-21.19246094 13.72008789 -21.19246094 13.72008789 -16.64746094 13.21508789 C-29.18746094 12.88508789 -41.72746094 12.55508789 -54.64746094 12.21508789 C-54.97746094 9.90508789 -55.30746094 7.59508789 -55.64746094 5.21508789 C-50.81406186 4.65848888 -45.98007001 4.10743943 -41.14550781 3.56103516 C-39.50862487 3.37530205 -37.87189897 3.18817847 -36.23535156 2.99951172 C-24.15854182 1.60860151 -12.1340529 0.71553552 0 0 Z " fill="#191919" transform="translate(429.6474609375,313.784912109375)"/>
<path d="M0 0 C0 0.66 0 1.32 0 2 C-4.29 2.99 -8.58 3.98 -13 5 C-11.02 5.99 -9.04 6.98 -7 8 C-7 8.33 -7 8.66 -7 9 C-8.19496094 9.01417969 -9.38992187 9.02835937 -10.62109375 9.04296875 C-23.28378845 9.0522383 -23.28378845 9.0522383 -34 15 C-38.22748236 19.99202704 -41.67929619 25.37721317 -45 31 C-48.42447685 29.85850772 -49.3358761 29.15307687 -51 26 C-49.80830375 21.76127202 -47.57521738 19.08005343 -44.625 15.875 C-43.85414063 15.02679688 -43.08328125 14.17859375 -42.2890625 13.3046875 C-40.29150783 11.29349764 -38.31828562 9.6196242 -36 8 C-40.82049681 8.84805037 -45.09099055 9.88265371 -49.4375 12.1875 C-50.613125 12.785625 -51.78875 13.38375 -53 14 C-53.66 13.67 -54.32 13.34 -55 13 C-38.44398203 -6.91895912 -23.88114494 -9.71436404 0 0 Z " fill="#D79A27" transform="translate(194,258)"/>
<path d="M0 0 C0.33 0 0.66 0 1 0 C1.05607422 1.59714844 1.05607422 1.59714844 1.11328125 3.2265625 C1.42023632 10.40382095 1.88388699 17.23466449 3.5625 24.25 C5.36950985 32.014775 6.7200416 39.9865696 3.5 47.5 C-2.23763551 53.23763551 -7.98086748 56.13448039 -16.125 56.25 C-22.06285276 56.22340268 -26.52286429 55.22798741 -32 53 C-32 52.67 -32 52.34 -32 52 C-31.13117188 51.84144531 -30.26234375 51.68289063 -29.3671875 51.51953125 C-20.95981757 49.81736799 -16.00782969 48.51174454 -11.125 41.1875 C-10.75375 40.465625 -10.3825 39.74375 -10 39 C-10.66 38.34 -11.32 37.68 -12 37 C-11.68546875 36.25878906 -11.3709375 35.51757812 -11.046875 34.75390625 C-8.12918747 27.57393422 -6.01172491 20.57964848 -4.43261719 13.00219727 C-3.4390376 8.36200436 -1.99264627 4.3117713 0 0 Z " fill="#D59727" transform="translate(366,297)"/>
<path d="M0 0 C0.66 0 1.32 0 2 0 C3.72558635 3.45117269 3.36792243 7.21927988 3 11 C0.8 16.6 0.8 16.6 -2 18 C-1.67 16.35 -1.34 14.7 -1 13 C-1.56960449 13.14147461 -2.13920898 13.28294922 -2.72607422 13.42871094 C-9.90527576 15.05456792 -16.78277431 15.30807 -24.125 15.25 C-25.31552979 15.24613281 -26.50605957 15.24226563 -27.73266602 15.23828125 C-35.47845546 15.16246087 -42.94077782 14.60698882 -50.58984375 13.4453125 C-55.7325328 12.7737586 -60.82488497 12.82357562 -66 13 C-66.66 14.65 -67.32 16.3 -68 18 C-68.66 17.67 -69.32 17.34 -70 17 C-69.69558521 13.44849408 -69.02406007 12.02861198 -66.6875 9.25 C-62.8864247 6.0677044 -60.01172617 5.87056155 -55.15893555 5.91821289 C-53.72175423 5.92800926 -53.72175423 5.92800926 -52.25553894 5.93800354 C-50.71172295 5.95515663 -50.71172295 5.95515663 -49.13671875 5.97265625 C-46.9485693 5.98530499 -44.76041818 5.99766577 -42.57226562 6.00976562 C-39.12925971 6.03455664 -35.68634142 6.06251125 -32.2434082 6.09594727 C-28.91617285 6.1262404 -25.58904845 6.14395414 -22.26171875 6.16015625 C-21.23858078 6.17361588 -20.21544281 6.1870755 -19.16130066 6.20094299 C-9.70177197 6.3231367 -9.70177197 6.3231367 -1.6875 1.875 C-1.130625 1.25625 -0.57375 0.6375 0 0 Z " fill="#101B22" transform="translate(339,280)"/>
<path d="M0 0 C0.82306641 0.009104 1.64613281 0.01820801 2.49414062 0.02758789 C10.05743346 0.18083785 17.48112617 0.91037539 24.6875 3.3125 C24.6875 4.3025 24.6875 5.2925 24.6875 6.3125 C26.35039062 6.45945312 26.35039062 6.45945312 28.046875 6.609375 C29.51051184 6.7594916 30.97404876 6.91058465 32.4375 7.0625 C33.16710937 7.124375 33.89671875 7.18625 34.6484375 7.25 C38.1046176 7.62703783 40.36822035 8.07341618 43.17578125 10.17578125 C45.40965932 13.33322649 45.1513545 15.53539909 44.6875 19.3125 C42.01717496 25.17086616 37.80441073 26.60961863 32.140625 29.0859375 C27.64150253 30.68404209 23.44484488 31.29102214 18.6875 31.3125 C21.60925162 28.15588088 25.01176853 26.09325679 28.62890625 23.8125 C30.93768978 22.31183623 30.93768978 22.31183623 32.6875 19.3125 C32.85463569 16.68718476 32.85463569 16.68718476 32.6875 14.3125 C30.95886719 14.1578125 30.95886719 14.1578125 29.1953125 14 C24.66925256 13.43399338 20.76552922 12.0293443 16.5625 10.3125 C8.26020645 6.95995479 0.73448936 6.1187272 -8.1875 5.75 C-9.16203125 5.70681641 -10.1365625 5.66363281 -11.140625 5.61914062 C-13.53112802 5.51367726 -15.92172444 5.41155825 -18.3125 5.3125 C-18.3125 4.6525 -18.3125 3.9925 -18.3125 3.3125 C-12.07418781 0.86004438 -6.68778945 -0.14930559 0 0 Z " fill="#D79928" transform="translate(310.3125,368.6875)"/>
<path d="M0 0 C0.66 0.33 1.32 0.66 2 1 C2 5.0125736 0.0150303 7.14075228 -2.1875 10.3125 C-12.35422246 25.82539556 -14.81914694 42.42888995 -11.203125 60.73046875 C-10.10829123 65.10146877 -8.37938326 69.00872615 -6.3125 73 C-5.95800781 73.69279053 -5.60351562 74.38558105 -5.23828125 75.09936523 C-2.37270563 80.55994984 0.78232006 85.47094771 5 90 C5.54527344 90.598125 6.09054688 91.19625 6.65234375 91.8125 C10.89678992 95.97335751 15.74465501 98.64520219 21 101.3125 C21.66443115 101.65031494 22.3288623 101.98812988 23.01342773 102.33618164 C31.60151776 106.50621282 39.55997557 107.34144482 49 107.625 C50.06089844 107.66367187 51.12179688 107.70234375 52.21484375 107.7421875 C54.80973067 107.83569694 57.40462449 107.92144902 60 108 C60.33 108.99 60.66 109.98 61 111 C42.76240611 114.36820428 25.24927508 110.32422909 10 100 C-4.15388352 89.71715818 -12.22108768 75.43300704 -16.60546875 58.6875 C-19.27267938 40.51877806 -15.65072552 24.49820946 -6 9 C-5.34 8.34 -4.68 7.68 -4 7 C-3.67 6.175 -3.34 5.35 -3 4.5 C-2 2 -2 2 0 0 Z " fill="#0A0F10" transform="translate(38,295)"/>
<path d="M0 0 C9.63574079 3.086899 16.03536474 9.58303869 21.609375 17.8359375 C22.859375 20.67578125 22.859375 20.67578125 23.609375 22.8359375 C22.743125 22.2584375 21.876875 21.6809375 20.984375 21.0859375 C20.43652344 20.72242188 19.88867188 20.35890625 19.32421875 19.984375 C17.720271 18.91020498 16.13287836 17.81142963 14.546875 16.7109375 C10.26076834 13.97512474 6.76195488 12.21952457 1.609375 12.8359375 C-0.97021893 15.45629251 -2.60820494 18.6349642 -4.390625 21.8359375 C-4.98875 22.8465625 -5.586875 23.8571875 -6.203125 24.8984375 C-6.43967587 28.60440106 -5.57134709 29.26385667 -3.203125 32.0234375 C-1.95282642 33.31447901 -0.68259041 34.58659363 0.609375 35.8359375 C1.599375 36.8259375 2.589375 37.8159375 3.609375 38.8359375 C-0.350625 38.8359375 -4.310625 38.8359375 -8.390625 38.8359375 C-9.21085112 36.48421907 -10.0218904 34.1299524 -10.828125 31.7734375 C-11.05822266 31.11666016 -11.28832031 30.45988281 -11.52539062 29.78320312 C-15.22002181 18.91349108 -15.22002181 18.91349108 -13.66772461 15.02514648 C-12.58645137 13.12766511 -11.40728038 11.36464506 -10.140625 9.5859375 C-9.73199219 8.97492188 -9.32335937 8.36390625 -8.90234375 7.734375 C-3.48786221 -0.23936309 -3.48786221 -0.23936309 0 0 Z " fill="#D9D7D8" transform="translate(173.390625,285.1640625)"/>
<path d="M0 0 C2.75056128 2.75056128 2.53450405 5.48883021 2.875 9.1875 C4.08951252 20.33021048 6.12846571 33.31604587 12 43 C13.91463045 44.39048938 13.91463045 44.39048938 16 45 C16.99 44.505 16.99 44.505 18 44 C17.93039063 45.34191406 17.93039063 45.34191406 17.859375 46.7109375 C17.64309105 53.95644981 17.98684072 59.52795761 21.125 66.109375 C22 68 22 68 22 70 C13.94154779 67.55804479 9.29444157 61.6860727 5.28515625 54.59765625 C3.42755782 50.84293602 2.09207014 47.03830253 1 43 C0.82614273 42.38179382 0.65228546 41.76358765 0.47315979 41.12664795 C-0.00118747 38.99466285 -0.12060365 37.14592466 -0.11352539 34.96582031 C-0.11344986 34.18531311 -0.11337433 33.40480591 -0.11329651 32.60064697 C-0.10813522 31.76821472 -0.10297394 30.93578247 -0.09765625 30.078125 C-0.0962413 29.21813904 -0.09482635 28.35815308 -0.09336853 27.47210693 C-0.08778097 24.73136891 -0.07523075 21.99071324 -0.0625 19.25 C-0.05748339 17.3893241 -0.05292077 15.52864691 -0.04882812 13.66796875 C-0.03781561 9.11194754 -0.02055951 4.55598772 0 0 Z " fill="#CF6F5C" transform="translate(132,106)"/>
<path d="M0 0 C7.88308644 5.96038243 15.2252373 14.80662632 19 24 C18.65625 26.796875 18.65625 26.796875 18 29 C11.64198992 31.51924523 6.18408391 32.42029695 -0.62890625 32.29296875 C-1.50401352 32.28872391 -2.37912079 32.28447906 -3.28074646 32.28010559 C-6.04166072 32.26347981 -8.80181105 32.22585966 -11.5625 32.1875 C-13.44855707 32.17243228 -15.33462573 32.15874756 -17.22070312 32.14648438 C-21.81409083 32.11362937 -26.40691647 32.06196135 -31 32 C-28.34688313 29.34688313 -26.18010546 29.15494469 -22.53125 28.30859375 C-21.89513794 28.158423 -21.25902588 28.00825226 -20.6036377 27.85353088 C-18.57061484 27.37471691 -16.53550013 26.90566023 -14.5 26.4375 C-12.46492136 25.96415329 -10.43035016 25.48876954 -8.3963623 25.01075745 C-6.55099947 24.57788717 -4.70423949 24.1509861 -2.85742188 23.72436523 C-0.07818205 23.12813829 -0.07818205 23.12813829 2 22 C4.12297905 14.38600747 2.23639371 7.35356575 0 0 Z " fill="#32444B" transform="translate(310,246)"/>
<path d="M0 0 C0.66 0 1.32 0 2 0 C2.14695312 1.16015625 2.14695312 1.16015625 2.296875 2.34375 C3.40220742 10.04296204 4.71239177 16.41351829 10.0625 22.25 C14.45045041 24.86409812 19.16233817 26.40721467 24 28 C20.40076291 29.98641439 16.58907106 31.14500015 12.6875 32.375 C7.4149882 34.09018503 2.53753606 35.75890282 -2 39 C-2.33 39.99 -2.66 40.98 -3 42 C-3.99 42 -4.98 42 -6 42 C-6.77469291 12.75236312 -6.77469291 12.75236312 0 0 Z " fill="#0B151A" transform="translate(264,244)"/>
<path d="M0 0 C1.99015038 3.71843886 2.69919905 7.31075891 3.375 11.4375 C5.1281525 21.241182 7.527834 30.27250144 12.13916016 39.1484375 C16.84593809 48.31786158 18.729781 55.64363375 17 66 C13.96020634 75.01989683 13.96020634 75.01989683 10 77 C10.00902344 76.11183594 10.01804687 75.22367187 10.02734375 74.30859375 C9.82168173 65.4472434 8.28729691 57.81731298 5.5625 49.375 C0.23188656 32.71044217 -0.27871656 17.39620159 0 0 Z " fill="#E39A8C" transform="translate(351,58)"/>
<path d="M0 0 C3.3 0.33 6.6 0.66 10 1 C9.67 2.32 9.34 3.64 9 5 C8.36162655 12.41978326 8.29684874 18.02572678 13 24 C18.57795977 28.12030478 24.32332684 27.77908482 31 27 C34.24161379 25.74232471 36.40736242 24.18527516 38 21 C41.35620271 22.38877354 43.07298728 23.91677965 45 27 C45 27.66 45 28.32 45 29 C35.28880474 33.37955865 24.59991443 34.91208372 14.125 31.9375 C8.08590823 29.52637008 2.68849035 25.34275873 0 19.3125 C-1.84784508 13.271468 -1.9940864 5.9822592 0 0 Z " fill="#D7D6D7" transform="translate(205,207)"/>
<path d="M0 0 C1.94458008 2.01953125 1.94458008 2.01953125 3.76953125 4.8125 C4.43017578 5.80507812 5.09082031 6.79765625 5.77148438 7.8203125 C6.44501953 8.86960938 7.11855469 9.91890625 7.8125 11 C8.50537109 12.04929688 9.19824219 13.09859375 9.91210938 14.1796875 C11.62379061 16.7767211 13.31866672 19.38325702 15 22 C11.89314654 22 10.70533789 21.55554018 8 20.1875 C6.9790625 19.68283203 6.9790625 19.68283203 5.9375 19.16796875 C4 18 4 18 2.46875 16.37890625 C0.90854861 14.62363858 0.90854861 14.62363858 -2.5 14.75 C-5.97089837 14.85261432 -5.97089837 14.85261432 -9 16 C-11.16424777 16.1199261 -13.33246644 16.17529542 -15.5 16.1875 C-16.6446875 16.20167969 -17.789375 16.21585938 -18.96875 16.23046875 C-22 16 -22 16 -25 14 C-24.01 13.34 -23.02 12.68 -22 12 C-23.07121094 11.87882813 -24.14242188 11.75765625 -25.24609375 11.6328125 C-26.64328752 11.46402399 -28.04041991 11.29472687 -29.4375 11.125 C-30.49807617 11.00705078 -30.49807617 11.00705078 -31.58007812 10.88671875 C-33.39673432 10.66072324 -35.20062522 10.33699273 -37 10 C-37.33 9.34 -37.66 8.68 -38 8 C-36.06833984 7.81824219 -36.06833984 7.81824219 -34.09765625 7.6328125 C-32.41922152 7.46403135 -30.74083865 7.29473387 -29.0625 7.125 C-28.21236328 7.04636719 -27.36222656 6.96773437 -26.48632812 6.88671875 C-25.67744141 6.80292969 -24.86855469 6.71914062 -24.03515625 6.6328125 C-23.2862915 6.55949707 -22.53742676 6.48618164 -21.76586914 6.41064453 C-21.18313232 6.27513184 -20.60039551 6.13961914 -20 6 C-19.67 5.34 -19.34 4.68 -19 4 C-16.77961355 3.20368339 -14.52145154 2.51119493 -12.25 1.875 C-11.01765625 1.52179688 -9.7853125 1.16859375 -8.515625 0.8046875 C-3.10625016 -0.4334583 -3.10625016 -0.4334583 0 0 Z " fill="#32454A" transform="translate(366,233)"/>
<path d="M0 0 C14.54672742 1.66929659 30.78435283 6.87145721 43 15 C43.59683594 15.39703125 44.19367188 15.7940625 44.80859375 16.203125 C49.81581 19.94917207 53.42331136 24.78580892 54.53125 30.9609375 C54.77980932 33.64675908 54.94548121 36.30379822 55 39 C51.67563779 37.89187926 51.07314668 37.14463373 48.9375 34.5 C39.66908222 23.68684592 28.9279652 17.11565747 16.46484375 10.640625 C15.70179932 10.24230469 14.93875488 9.84398437 14.15258789 9.43359375 C12.66789439 8.66204331 11.17895116 7.89859972 9.68530273 7.14453125 C5.85769611 5.17085804 2.87143856 3.30289824 0 0 Z " fill="#32444A" transform="translate(205,179)"/>
<path d="M0 0 C1.18529297 0.44472656 1.18529297 0.44472656 2.39453125 0.8984375 C2.98621094 1.13820312 3.57789063 1.37796875 4.1875 1.625 C3.61405063 4.49224686 3.3260485 5.4864515 1.1875 7.625 C0.1975 7.625 -0.7925 7.625 -1.8125 7.625 C0.21383069 11.94871893 0.21383069 11.94871893 3.1875 15.625 C7.83944714 15.96716235 7.83944714 15.96716235 12.1875 14.625 C12.1875 12.315 12.1875 10.005 12.1875 7.625 C14.4975 8.945 16.8075 10.265 19.1875 11.625 C19.1875 12.945 19.1875 14.265 19.1875 15.625 C20.5075 15.625 21.8275 15.625 23.1875 15.625 C22.8575 16.285 22.5275 16.945 22.1875 17.625 C21.5275 17.295 20.8675 16.965 20.1875 16.625 C19.960625 17.223125 19.73375 17.82125 19.5 18.4375 C17.78298593 21.29919011 16.17251611 22.14698231 13.1875 23.625 C7.36585928 24.50929986 1.13214382 24.8580974 -3.9375 21.5 C-7.80773874 18.0331112 -9.68585653 14.87292162 -9.984375 9.57421875 C-9.99843036 6.58393989 -9.94300691 3.61215826 -9.8125 0.625 C-5.93947731 -1.28743394 -4.02872115 -1.56338433 0 0 Z " fill="#1F0F07" transform="translate(222.8125,211.375)"/>
<path d="M0 0 C0.91330078 0.23847656 1.82660156 0.47695313 2.76757812 0.72265625 C4.99365123 1.3053979 7.21659024 1.8979365 9.4375 2.5 C9.4375 2.83 9.4375 3.16 9.4375 3.5 C8.69701416 3.48428955 7.95652832 3.4685791 7.19360352 3.45239258 C3.79581527 3.38952461 0.39814996 3.35084559 -3 3.3125 C-4.16466797 3.28736328 -5.32933594 3.26222656 -6.52929688 3.23632812 C-18.88760655 3.13189171 -27.29356595 7.15231524 -38.25 12.5625 C-40.43975537 13.64008003 -42.63111262 14.71441222 -44.82421875 15.78515625 C-46.26220825 16.49490601 -46.26220825 16.49490601 -47.72924805 17.21899414 C-53.00379013 19.6037871 -57.66186909 20.77138994 -63.4375 21.125 C-64.58992187 21.19976562 -65.74234375 21.27453125 -66.9296875 21.3515625 C-67.79851562 21.40054687 -68.66734375 21.44953125 -69.5625 21.5 C-67.06041034 18.46537099 -64.82721385 17.86412416 -61.0625 16.9375 C-52.34161677 14.41380307 -44.7063035 10.03380966 -36.77294922 5.69677734 C-33.7310904 4.04985975 -30.6556909 2.48597011 -27.5625 0.9375 C-26.655 0.48246094 -25.7475 0.02742188 -24.8125 -0.44140625 C-16.53689098 -4.33496536 -8.47355142 -2.30023039 0 0 Z " fill="#AD5A25" transform="translate(317.5625,366.5)"/>
<path d="M0 0 C2.25 -0.3125 2.25 -0.3125 5 0 C8.42240775 3.51747463 9.83248569 6.29135405 10.3125 11.1875 C9.92665702 15.8947843 8.89711129 19.24357604 6 23 C-1.13435577 28.57268803 -11.06581368 29.17891788 -19.7734375 29.36328125 C-22.52048779 28.91507831 -23.91940016 27.80033639 -26 26 C-24.75023244 22.34683329 -24.32901247 21.21934164 -21 19 C-20.195625 19.66 -19.39125 20.32 -18.5625 21 C-14.53670941 23.66482592 -10.68713304 23.83848534 -6 23 C-1.91592766 20.9208359 0.32507955 19.24466141 2 15 C2.57964683 9.75760586 2.52661325 4.73739985 0 0 Z " fill="#E7E7E7" transform="translate(349,205)"/>
<path d="M0 0 C0 0.33 0 0.66 0 1 C-2.31 1.33 -4.62 1.66 -7 2 C-7.185625 2.9590625 -7.185625 2.9590625 -7.375 3.9375 C-7.58125 4.618125 -7.7875 5.29875 -8 6 C-10.34938888 7.17469444 -11.95073205 7.20034889 -14.5703125 7.31640625 C-15.91416016 7.37924805 -15.91416016 7.37924805 -17.28515625 7.44335938 C-18.22230469 7.48267578 -19.15945313 7.52199219 -20.125 7.5625 C-21.06988281 7.60568359 -22.01476562 7.64886719 -22.98828125 7.69335938 C-25.32537092 7.79959072 -27.6625683 7.90163176 -30 8 C-30 7.34 -30 6.68 -30 6 C-31.26457031 6.55880859 -31.26457031 6.55880859 -32.5546875 7.12890625 C-33.65039062 7.60199219 -34.74609375 8.07507813 -35.875 8.5625 C-36.96554687 9.03816406 -38.05609375 9.51382812 -39.1796875 10.00390625 C-40.11039062 10.33261719 -41.04109375 10.66132813 -42 11 C-42.66 10.67 -43.32 10.34 -44 10 C-31.5777388 -2.04057161 -16.51941721 -7.0082376 0 0 Z " fill="#0A0602" transform="translate(322,382)"/>
<path d="M0 0 C1.09140455 2.1777328 2.1766257 4.35820353 3.25390625 6.54296875 C3.90166016 7.85201172 3.90166016 7.85201172 4.5625 9.1875 C4.99691406 10.06792969 5.43132812 10.94835937 5.87890625 11.85546875 C6.82401014 13.92369507 6.82401014 13.92369507 8 15 C11.36629251 15.14636054 13.78419562 15.07193479 17 14 C16.67 17.3 16.34 20.6 16 24 C11.32798795 25.20568053 6.78503708 25.09382426 2 25 C-1.49043838 18.33643582 -2.12718851 11.40349509 -3 4 C-2.34 4 -1.68 4 -1 4 C-0.67 2.68 -0.34 1.36 0 0 Z " fill="#AF5B25" transform="translate(372,291)"/>
<path d="M0 0 C2.4375 1 2.4375 1 4 3 C4.63947658 6.12498931 4.63388146 8.87430865 4 12 C1.8125 15.125 1.8125 15.125 -1 17 C-3.5625 17.125 -3.5625 17.125 -6 16 C-8.53785883 13.31712067 -10.79179761 10.51477058 -12 7 C-11.84914503 3.90747307 -11.40823338 2.47103852 -9.375 0.125 C-5.9122558 -1.51524725 -3.66110709 -0.91527677 0 0 Z " fill="#C67628" transform="translate(267,189)"/>
<path d="M0 0 C1.14275391 0.13148438 1.14275391 0.13148438 2.30859375 0.265625 C4.65688552 0.77028389 6.4704315 1.58721022 8.5625 2.75 C8.0211534 7.29731145 7.20650658 10.96025723 4.5625 14.75 C0.875 15.625 0.875 15.625 -2.4375 15.75 C-5.08864246 12.01946382 -7.2579222 8.96215017 -7.9375 4.375 C-7.7725 3.50875 -7.6075 2.6425 -7.4375 1.75 C-4.16689407 -0.43040395 -3.67375511 -0.47083539 0 0 Z " fill="#C57528" transform="translate(306.4375,187.25)"/>
<path d="M0 0 C2.97 0.99 5.94 1.98 9 3 C8 7 8 7 6 9 C5.01 9 4.02 9 3 9 C5.02633069 13.32371893 5.02633069 13.32371893 8 17 C12.65194714 17.34216235 12.65194714 17.34216235 17 16 C17 13.69 17 11.38 17 9 C18.98 10.32 20.96 11.64 23 13 C22.11593727 15.97366555 21.31696033 17.7127547 19 19.8125 C14.62300527 21.54506041 10.63280844 21.93722934 6 21 C1.56439083 17.11884198 -0.73511739 12.78503313 -1.1484375 6.87890625 C-1.1833742 4.91895763 -1.09954563 2.95773078 -1 1 C-0.67 0.67 -0.34 0.34 0 0 Z " fill="#532610" transform="translate(218,210)"/>
<path d="M0 0 C10.95745335 -0.70106929 19.63068504 -0.6480801 29 6 C29.33 6.66 29.66 7.32 30 8 C23.29605159 8.13031433 16.62973528 7.93582571 9.9375 7.5625 C9.18734619 7.52326416 8.43719238 7.48402832 7.66430664 7.44360352 C2.24166977 7.12083489 2.24166977 7.12083489 0 6 C0 4.02 0 2.04 0 0 Z " fill="#C97628" transform="translate(165,354)"/>
<path d="M0 0 C5.99655995 7.19587194 6.42214412 11.7490131 6 21 C5.76627674 23.37288527 5.42685294 25.65230886 5 28 C4.34 26.68 3.68 25.36 3 24 C0.525 27.465 0.525 27.465 -2 31 C-3.9375 30.1875 -3.9375 30.1875 -6 29 C-6.33 28.01 -6.66 27.02 -7 26 C-6.34 26 -5.68 26 -5 26 C-4.80664062 25.40832031 -4.61328125 24.81664062 -4.4140625 24.20703125 C-4.15367187 23.41683594 -3.89328125 22.62664062 -3.625 21.8125 C-3.36976563 21.03519531 -3.11453125 20.25789063 -2.8515625 19.45703125 C-2 17 -2 17 -0.90625 14.59375 C0.17870404 11.48853672 0.19708794 8.96750121 0.125 5.6875 C0.09792969 4.08455078 0.09792969 4.08455078 0.0703125 2.44921875 C0.04710937 1.64097656 0.02390625 0.83273437 0 0 Z " fill="#B35D26" transform="translate(217,288)"/>
<path d="M0 0 C3.875 1.875 3.875 1.875 5 3 C5.09886353 4.62252492 5.12971167 6.24947273 5.125 7.875 C5.12886719 9.20144531 5.12886719 9.20144531 5.1328125 10.5546875 C4.96484281 13.64730583 4.54821174 15.4568879 2.3203125 17.6640625 C-0.64570338 19.37176861 -2.71916402 19.40010444 -6.125 19.375 C-7.17945313 19.38273437 -8.23390625 19.39046875 -9.3203125 19.3984375 C-10.20460938 19.26695312 -11.08890625 19.13546875 -12 19 C-14 16 -14 16 -13.875 13.4375 C-13 11 -13 11 -10.9375 9.6875 C-10.298125 9.460625 -9.65875 9.23375 -9 9 C-9 10.98 -9 12.96 -9 15 C-5.66857722 15.50125283 -5.66857722 15.50125283 -2 15 C0.49540371 12.13384514 0.49540371 12.13384514 2 9 C1.360625 8.855625 0.72125 8.71125 0.0625 8.5625 C-2 8 -2 8 -3 7 C-3.25 4.5625 -3.25 4.5625 -3 2 C-2.01 1.34 -1.02 0.68 0 0 Z " fill="#381708" transform="translate(344,207)"/>
<path d="M0 0 C4.39213461 2.07476073 7.52384818 4.6650128 10.73828125 8.28125 C10.40828125 8.94125 10.07828125 9.60125 9.73828125 10.28125 C9.29097656 9.87132812 8.84367187 9.46140625 8.3828125 9.0390625 C7.77824219 8.50023437 7.17367187 7.96140625 6.55078125 7.40625 C5.95910156 6.87257813 5.36742187 6.33890625 4.7578125 5.7890625 C0.52116185 2.62591521 -2.87436407 2.02976148 -8.07421875 2.65625 C-9.53794922 2.82253906 -9.53794922 2.82253906 -11.03125 2.9921875 C-11.76730469 3.08757812 -12.50335938 3.18296875 -13.26171875 3.28125 C-13.49358887 3.97686035 -13.72545898 4.6724707 -13.96435547 5.38916016 C-17.06347656 14.68652344 -20.16259766 23.98388672 -23.26171875 33.28125 C-24.83346397 29.30151051 -23.63433952 25.90182067 -22.51171875 21.96875 C-22.3415625 21.33001953 -22.17140625 20.69128906 -21.99609375 20.03320312 C-20.77267813 15.59382366 -19.15172295 11.47944899 -17.26171875 7.28125 C-18.18984375 7.796875 -19.11796875 8.3125 -20.07421875 8.84375 C-23.26171875 10.28125 -23.26171875 10.28125 -26.26171875 9.28125 C-24.30483916 7.80012554 -22.34630438 6.32128653 -20.38671875 4.84375 C-19.83113281 4.42287109 -19.27554687 4.00199219 -18.703125 3.56835938 C-12.72062276 -0.93653689 -7.4060914 -2.35357654 0 0 Z " fill="#BC732A" transform="translate(372.26171875,250.71875)"/>
<path d="M0 0 C0.66 0.33 1.32 0.66 2 1 C1.154375 1.7734375 0.30875 2.546875 -0.5625 3.34375 C-1.70870006 4.39543379 -2.85450709 5.44754603 -4 6.5 C-4.59143799 7.04301758 -5.18287598 7.58603516 -5.79223633 8.14550781 C-9.82799452 11.8691292 -13.73030491 15.68803001 -17.51171875 19.671875 C-19 21 -19 21 -21 21 C-22.32 15.72 -23.64 10.44 -25 5 C-22.525 6.485 -22.525 6.485 -20 8 C-12.86974951 9.22935353 -9.07428516 6.61316528 -3.22265625 2.62890625 C-1.134641 1.18542715 -1.134641 1.18542715 0 0 Z " fill="#0B1419" transform="translate(333,205)"/>
<path d="M0 0 C0 0.33 0 0.66 0 1 C-0.68924561 1.01458252 -1.37849121 1.02916504 -2.08862305 1.04418945 C-23.6407904 0.24139387 -23.6407904 0.24139387 -42.3125 8.6875 C-43.23654732 9.76816551 -44.14439373 10.86437713 -45 12 C-45.66 11.67 -46.32 11.34 -47 11 C-44.53831817 6.06738189 -42.16071482 1.95317433 -36.98046875 -0.33203125 C-25.00741283 -3.10978022 -11.88658633 -3.20023478 0 0 Z " fill="#27333A" transform="translate(247,145)"/>
<path d="M0 0 C1.0209375 0.99 1.0209375 0.99 2.0625 2 C5.78546979 4.53478794 7.56474733 4.61175899 12 4 C14.47898295 2.83813324 16.6720113 1.46069879 19 0 C19.66 0 20.32 0 21 0 C19.68203796 4.61286713 17.86611786 8.14865412 15 12 C13 13 13 13 10.72265625 12.29296875 C9.84480469 11.92816406 8.96695312 11.56335938 8.0625 11.1875 C7.18722656 10.83042969 6.31195313 10.47335938 5.41015625 10.10546875 C3 9 3 9 0 7 C-0.1875 3.375 -0.1875 3.375 0 0 Z " fill="#0C161B" transform="translate(267,223)"/>
<path d="M0 0 C2.4375 0.375 2.4375 0.375 5 1 C6.84593445 4.69186889 6.34449699 8.96172979 6 13 C4.20074724 17.59809038 1.38299083 19.80850458 -3 22 C-7.03493411 22.79375753 -10.44888518 22.82101133 -14.1328125 20.87109375 C-16.0625 19.5 -16.0625 19.5 -19 17 C-18.34 16.67 -17.68 16.34 -17 16 C-16.67 15.01 -16.34 14.02 -16 13 C-15.34 14.98 -14.68 16.96 -14 19 C-12.08268082 18.88544319 -10.1661325 18.75793742 -8.25 18.625 C-7.18265625 18.55539063 -6.1153125 18.48578125 -5.015625 18.4140625 C-2.19793568 18.0271777 -0.4169634 17.44313834 2 16 C2.05402274 13.89611431 2.09280256 11.79183286 2.125 9.6875 C2.14820313 8.51574219 2.17140625 7.34398437 2.1953125 6.13671875 C2.25320618 2.83606339 2.25320618 2.83606339 0 0 Z " fill="#1D130E" transform="translate(346,207)"/>
<path d="M0 0 C-0.99 0.99 -1.98 1.98 -3 3 C10.86 3.33 24.72 3.66 39 4 C39 4.33 39 4.66 39 5 C38.36852554 5.00586624 37.73705109 5.01173248 37.08644104 5.01777649 C30.48320223 5.08196769 23.88043923 5.16645274 17.27758789 5.26245117 C14.81703994 5.29559912 12.3564178 5.32366222 9.89575195 5.34643555 C6.34815003 5.38016755 2.80122176 5.43249428 -0.74609375 5.48828125 C-2.38257118 5.49786613 -2.38257118 5.49786613 -4.05210876 5.50764465 C-10.55400462 5.63134673 -15.97906259 6.50126707 -22 9 C-17.61398197 3.66049978 -6.78447959 -2.2614932 0 0 Z " fill="#212B31" transform="translate(283,275)"/>
<path d="M0 0 C-0.515625 0.37125 -1.03125 0.7425 -1.5625 1.125 C-3.29402103 2.97841997 -3.29402103 2.97841997 -2.9375 5.8125 C-1.83902798 9.54730485 -0.50038047 12.01343444 2 15 C5.32199049 16.24574643 7.65979228 16.11340257 11 15 C9.3125 18 9.3125 18 7 21 C4.5859375 21.453125 4.5859375 21.453125 2 21 C0.05078125 19.171875 0.05078125 19.171875 -1.6875 16.75 C-2.26886719 15.96109375 -2.85023438 15.1721875 -3.44921875 14.359375 C-6.57379816 9.60560683 -7.22258403 6.78718476 -7 1 C-3.375 -1.125 -3.375 -1.125 0 0 Z " fill="#0C0906" transform="translate(259,189)"/>
<path d="M0 0 C0.598125 0.20625 1.19625 0.4125 1.8125 0.625 C0.8225 1.285 -0.1675 1.945 -1.1875 2.625 C-2.07928672 8.10311844 -0.04278422 11.1636184 2.8125 15.625 C5.4525 15.295 8.0925 14.965 10.8125 14.625 C9.73848892 17.54017292 9.03439824 19.40310176 6.8125 21.625 C4.16865053 21.42737893 3.07309939 20.89197102 1.21484375 18.98828125 C-6.27297009 8.50534188 -6.27297009 8.50534188 -6.0625 3.875 C-4.85221433 0.76283685 -3.41477386 -0.5853898 0 0 Z " fill="#090705" transform="translate(301.1875,186.375)"/>
<path d="M0 0 C3.35620271 1.38877354 5.07298728 2.91677965 7 6 C7 6.66 7 7.32 7 8 C1.44858029 11.18482809 -4.93161477 10.5660349 -11 9 C-8.65762807 7.19817544 -6.29680078 5.54498874 -3.8125 3.9375 C-0.94765596 2.29769607 -0.94765596 2.29769607 0 0 Z " fill="#F6F6F6" transform="translate(243,228)"/>
<path d="M0 0 C1.26166992 0.00012085 1.26166992 0.00012085 2.54882812 0.00024414 C10.20236578 0.0698884 17.64189202 0.75563067 24.9375 3.1875 C24.9375 4.1775 24.9375 5.1675 24.9375 6.1875 C24.18210937 5.9709375 23.42671875 5.754375 22.6484375 5.53125 C9.48486785 2.20182255 -4.66734687 1.90276962 -18.0625 4.1875 C-12.65865333 -0.41577679 -6.77149667 -0.00601258 0 0 Z " fill="#C87828" transform="translate(310.0625,368.8125)"/>
<path d="M0 0 C1.94458008 2.01953125 1.94458008 2.01953125 3.76953125 4.8125 C4.43017578 5.80507812 5.09082031 6.79765625 5.77148438 7.8203125 C6.44501953 8.86960938 7.11855469 9.91890625 7.8125 11 C8.50537109 12.04929688 9.19824219 13.09859375 9.91210938 14.1796875 C11.62379061 16.7767211 13.31866672 19.38325702 15 22 C11.4404523 22 10.55450494 21.38420461 8 19 C7.89042969 18.4328125 7.78085937 17.865625 7.66796875 17.28125 C6.68528721 13.92519139 4.55883049 11.4658228 2.4375 8.75 C2.01275391 8.19570312 1.58800781 7.64140625 1.15039062 7.0703125 C0.10601659 5.70910589 -0.94622464 4.35394167 -2 3 C-5.46941546 3.45822468 -8.67395049 3.89131683 -12 5 C-14.33299825 5.03954234 -16.66708189 5.04401732 -19 5 C-16.0865925 3.45246253 -13.21672747 2.33730669 -10.0625 1.375 C-9.22847656 1.11460937 -8.39445312 0.85421875 -7.53515625 0.5859375 C-4.7744864 -0.05212179 -2.81954929 -0.36913766 0 0 Z " fill="#273137" transform="translate(366,233)"/>
<path d="M0 0 C0.33 0 0.66 0 1 0 C1 3.3 1 6.6 1 10 C-4.94 10.495 -4.94 10.495 -11 11 C-10.34 8.36 -9.68 5.72 -9 3 C-2.25 1.875 -2.25 1.875 0 3 C0 2.01 0 1.02 0 0 Z " fill="#E5E5E5" transform="translate(209,331)"/>
<path d="M0 0 C2.76577948 4.14866922 4.1265876 7.97459843 3.8125 13 C1.7290243 20.69283335 -0.03905285 23.59434294 -6.84375 27.8359375 C-10.06398496 29.57439768 -12.58520125 30.12155408 -16.1875 30.0625 C-18.0746875 30.0315625 -18.0746875 30.0315625 -20 30 C-20 29.67 -20 29.34 -20 29 C-19.41992188 28.90203125 -18.83984375 28.8040625 -18.2421875 28.703125 C-12.8610617 27.67307452 -9.40368808 26.22221079 -5 23 C-4.34 23 -3.68 23 -3 23 C-2.690625 22.195625 -2.38125 21.39125 -2.0625 20.5625 C-1 18 -1 18 0 17 C0.07325168 14.13732433 0.09238205 11.299281 0.0625 8.4375 C0.05798828 7.63119141 0.05347656 6.82488281 0.04882812 5.99414062 C0.03700518 3.99606244 0.01906914 1.99802217 0 0 Z " fill="#C97828" transform="translate(370,324)"/>
<path d="M0 0 C1.32 0.99 2.64 1.98 4 3 C3.34 3 2.68 3 2 3 C2.66 4.32 3.32 5.64 4 7 C10.1105424 7.11269443 15.95170514 6.89604368 22 6 C17.30251583 10.69748417 8.54031008 10.22960256 2.2265625 10.36328125 C-0.52048779 9.91507831 -1.91940016 8.80033639 -4 7 C-2.92598892 4.08482708 -2.22189824 2.22189824 0 0 Z " fill="#CBCACA" transform="translate(327,224)"/>
<path d="M0 0 C4.62 1.32 9.24 2.64 14 4 C14.66 2.68 15.32 1.36 16 0 C15.6814443 3.50411265 15.30932553 5.5840105 13.1875 8.4375 C11 10 11 10 9.09765625 9.8125 C6.53382081 8.81943153 5.16220046 7.52781714 3.25 5.5625 C2.63640625 4.94503906 2.0228125 4.32757813 1.390625 3.69140625 C0 2 0 2 0 0 Z " fill="#0B1419" transform="translate(247,219)"/>
<path d="M0 0 C4.1169303 3.59750451 6.55048517 7.9479336 9.25 12.625 C9.70890625 13.40101562 10.1678125 14.17703125 10.640625 14.9765625 C14 20.73549107 14 20.73549107 14 23 C13.34 23 12.68 23 12 23 C11.34 21.68 10.68 20.36 10 19 C9.67 19.99 9.34 20.98 9 22 C8.34 22 7.68 22 7 22 C6.74605469 21.05898437 6.49210938 20.11796875 6.23046875 19.1484375 C5.88628906 17.90320313 5.54210937 16.65796875 5.1875 15.375 C4.85105469 14.14523438 4.51460937 12.91546875 4.16796875 11.6484375 C3.06563737 8.20503446 1.64251254 5.20972364 0 2 C0 1.34 0 0.68 0 0 Z " fill="#242F36" transform="translate(154,55)"/>
<path d="M0 0 C0.66 0.33 1.32 0.66 2 1 C1 4 1 4 -0.46484375 5.328125 C-2.57359338 7.62467676 -2.89056379 9.72436726 -3.5625 12.75 C-3.80742187 13.8121875 -4.05234375 14.874375 -4.3046875 15.96875 C-4.53414063 16.9690625 -4.76359375 17.969375 -5 19 C-5.63316486 21.34505503 -6.31171156 23.67040835 -7 26 C-7.66 26 -8.32 26 -9 26 C-8.57438081 23.28931891 -8.13497069 20.58208637 -7.6875 17.875 C-7.51057617 16.73417969 -7.51057617 16.73417969 -7.33007812 15.5703125 C-6.3177726 9.54839248 -4.81261261 4.12509652 0 0 Z " fill="#222C33" transform="translate(265,240)"/>
<path d="M0 0 C2.97 0.99 5.94 1.98 9 3 C8 7 8 7 7 8 C4.0625 8.25 4.0625 8.25 1 8 C-1 5 -1 5 -0.625 2.3125 C-0.41875 1.549375 -0.2125 0.78625 0 0 Z " fill="#ECEBEB" transform="translate(218,210)"/>
<path d="M0 0 C0.66 0 1.32 0 2 0 C2 1.98 2 3.96 2 6 C6.96551325 6.35606813 6.96551325 6.35606813 11.4375 4.5 C11.953125 4.005 12.46875 3.51 13 3 C12.6875 4.875 12.6875 4.875 12 7 C8.91111478 9.05925681 8.29064073 9.2390374 4.8125 9.125 C2.9253125 9.063125 2.9253125 9.063125 1 9 C0.34 7.68 -0.32 6.36 -1 5 C-1.66 5 -2.32 5 -3 5 C-1.125 1.125 -1.125 1.125 0 0 Z " fill="#765545" transform="translate(333,216)"/>
<path d="M0 0 C1.9375 0.75 1.9375 0.75 4 2 C4.875 4 4.875 4 5 6 C3 8 3 8 0.4375 8.1875 C-2 8 -2 8 -3 7 C-3.25 4.5625 -3.25 4.5625 -3 2 C-2.01 1.34 -1.02 0.68 0 0 Z " fill="#EEEEED" transform="translate(344,207)"/>
<path d="M0 0 C2.77124036 0.64412614 5.54199445 1.29022748 8.3125 1.9375 C9.49102539 2.21110352 9.49102539 2.21110352 10.69335938 2.49023438 C11.8293457 2.75610352 11.8293457 2.75610352 12.98828125 3.02734375 C14.03302612 3.27085571 14.03302612 3.27085571 15.09887695 3.51928711 C16.7534406 3.93765565 18.38094108 4.46031369 20 5 C21.04976964 8.14930893 21.10131595 10.38814456 21.0625 13.6875 C21.05347656 14.68136719 21.04445313 15.67523438 21.03515625 16.69921875 C21.02355469 17.45847656 21.01195312 18.21773438 21 19 C20.67 19 20.34 19 20 19 C19.96261719 18.31292969 19.92523438 17.62585938 19.88671875 16.91796875 C19.82097656 16.01691406 19.75523437 15.11585938 19.6875 14.1875 C19.62949219 13.29417969 19.57148438 12.40085937 19.51171875 11.48046875 C19.14968143 9.03478709 19.14968143 9.03478709 17.96875 7.28125 C14.86238204 5.25964545 11.40820337 4.88718447 7.8125 4.3125 C7.06291016 4.18294922 6.31332031 4.05339844 5.54101562 3.91992188 C3.69581641 3.60259462 1.848117 3.29986709 0 3 C0 2.01 0 1.02 0 0 Z " fill="#B56C24" transform="translate(335,372)"/>
<path d="M0 0 C0.33 0 0.66 0 1 0 C1 12.21 1 24.42 1 37 C0.67 37 0.34 37 0 37 C-0.02505615 36.20303711 -0.0501123 35.40607422 -0.07592773 34.58496094 C-0.19198789 30.97314778 -0.31466931 27.36158898 -0.4375 23.75 C-0.49647461 21.86861328 -0.49647461 21.86861328 -0.55664062 19.94921875 C-0.59853516 18.74394531 -0.64042969 17.53867188 -0.68359375 16.296875 C-0.72025146 15.18666992 -0.75690918 14.07646484 -0.79467773 12.93261719 C-0.90128584 10.09706882 -0.90128584 10.09706882 -1.57836914 7.80957031 C-2.25125436 4.92165762 -1.0401529 2.69216044 0 0 Z " fill="#261613" transform="translate(131,101)"/>
<path d="M0 0 C3.45073325 2.92986785 6.79810715 5.79810715 10 9 C6.7 9 3.4 9 0 9 C0 6.03 0 3.06 0 0 Z " fill="#EFEFEF" transform="translate(167,315)"/>
<path d="M0 0 C4.62 0.66 9.24 1.32 14 2 C13.01 3.485 13.01 3.485 12 5 C9.6875 5.36328125 9.6875 5.36328125 7 5.3125 C6.113125 5.30863281 5.22625 5.30476562 4.3125 5.30078125 C2 5 2 5 0 3 C0 2.01 0 1.02 0 0 Z " fill="#F3F3F3" transform="translate(329,227)"/>
<path d="M0 0 C2.97 1.98 2.97 1.98 6 4 C4.92598892 6.91517292 4.22189824 8.77810176 2 11 C1.01 10.67 0.02 10.34 -1 10 C-1.33 9.34 -1.66 8.68 -2 8 C-1.34 7.67 -0.68 7.34 0 7 C0 4.69 0 2.38 0 0 Z " fill="#461F0C" transform="translate(235,219)"/>
<path d="M0 0 C0.33 0 0.66 0 1 0 C1.08706892 3.27066566 1.14041241 6.54103365 1.1875 9.8125 C1.21263672 10.74126953 1.23777344 11.67003906 1.26367188 12.62695312 C1.27333984 13.51962891 1.28300781 14.41230469 1.29296875 15.33203125 C1.3086792 16.15421143 1.32438965 16.9763916 1.34057617 17.82348633 C0.92566921 20.47502434 0.04470249 21.33263592 -2 23 C-1.43434519 15.32153678 -0.8123221 7.65656792 0 0 Z " fill="#0F181C" transform="translate(307,212)"/>
<path d="M0 0 C0.33 1.32 0.66 2.64 1 4 C2.32 4 3.64 4 5 4 C4.67 4.66 4.34 5.32 4 6 C3.34 5.67 2.68 5.34 2 5 C1.6596875 5.8971875 1.6596875 5.8971875 1.3125 6.8125 C-0.35609042 9.59348403 -2.1283832 10.5641916 -5 12 C-5.66 12 -6.32 12 -7 12 C-7 11.34 -7 10.68 -7 10 C-6.01 10 -5.02 10 -4 10 C-2.26337666 6.77484237 -1.1094072 3.48670834 0 0 Z " fill="#251E1B" transform="translate(241,223)"/>
<path d="M0 0 C2.9041227 4.35618406 4.19768998 8.1878419 3.625 13.4375 C3.41875 14.283125 3.2125 15.12875 3 16 C2.34 15.67 1.68 15.34 1 15 C0.68758629 12.45058627 0.48696579 9.99638487 0.375 7.4375 C0.33632813 6.72658203 0.29765625 6.01566406 0.2578125 5.28320312 C0.16328217 3.52257575 0.08054183 1.76132272 0 0 Z " fill="#AC6622" transform="translate(370,324)"/>
<path d="M0 0 C3 3.75 3 3.75 3 6 C5.97 6.495 5.97 6.495 9 7 C8.67 7.66 8.34 8.32 8 9 C3.16743695 8.58578031 1.17320782 6.53586014 -2 3 C-1.34 3 -0.68 3 0 3 C0 2.01 0 1.02 0 0 Z " fill="#261C18" transform="translate(329,220)"/>
<path d="M0 0 C1 2 1 2 0.22265625 4.8203125 C-0.16019531 5.91085937 -0.54304688 7.00140625 -0.9375 8.125 C-1.31777344 9.22070312 -1.69804687 10.31640625 -2.08984375 11.4453125 C-2.39019531 12.28835938 -2.69054687 13.13140625 -3 14 C-3.33 14 -3.66 14 -4 14 C-4.31549088 8.7418187 -3.70016294 5.53627373 -1 1 C-0.67 0.67 -0.34 0.34 0 0 Z " fill="#C3782A" transform="translate(356,258)"/>
<path d="M0 0 C0.66 0.33 1.32 0.66 2 1 C1.3125 2.9375 1.3125 2.9375 0 5 C-2.625 5.75 -2.625 5.75 -5 6 C-5.33 5.01 -5.66 4.02 -6 3 C-4.03533587 1.93224776 -2.03144641 0.93446535 0 0 Z " fill="#141B1D" transform="translate(118,395)"/>
<path d="M0 0 C0.598125 0.20625 1.19625 0.4125 1.8125 0.625 C0.8225 1.285 -0.1675 1.945 -1.1875 2.625 C-1.91715366 5.18782742 -1.91715366 5.18782742 -2.1875 7.625 C-2.8475 6.305 -3.5075 4.985 -4.1875 3.625 C-4.8475 4.615 -5.5075 5.605 -6.1875 6.625 C-5.875 4.25 -5.875 4.25 -5.1875 1.625 C-2.1875 -0.375 -2.1875 -0.375 0 0 Z " fill="#1C1711" transform="translate(301.1875,186.375)"/>
<path d="M0 0 C4.455 1.98 4.455 1.98 9 4 C7.02 4.99 7.02 4.99 5 6 C3.02 4.68 1.04 3.36 -1 2 C-0.67 1.34 -0.34 0.68 0 0 Z " fill="#231C19" transform="translate(218,229)"/>
<path d="M0 0 C2.03833424 1.2739589 4.03852126 2.61061923 6 4 C6 4.66 6 5.32 6 6 C4.35 5.67 2.7 5.34 1 5 C0.67 3.35 0.34 1.7 0 0 Z " fill="#E5E2E0" transform="translate(235,219)"/>
<path d="M0 0 C4.75 0.75 4.75 0.75 7 3 C3.7 3.33 0.4 3.66 -3 4 C-3 3.34 -3 2.68 -3 2 C-2.01 2 -1.02 2 0 2 C0 1.34 0 0.68 0 0 Z " fill="#140B04" transform="translate(315,380)"/>
<path d="M0 0 C0.33 0 0.66 0 1 0 C0.67 2.97 0.34 5.94 0 9 C-0.66 8.01 -1.32 7.02 -2 6 C-2.99 6.495 -2.99 6.495 -4 7 C-2.79618552 4.50638429 -1.54571278 2.31856917 0 0 Z " fill="#2A1509" transform="translate(220,311)"/>
<path d="M0 0 C2.64 0 5.28 0 8 0 C7.67 0.99 7.34 1.98 7 3 C4.69 2.67 2.38 2.34 0 2 C0 1.34 0 0.68 0 0 Z " fill="#4C4439" transform="translate(193,264)"/>
<path d="M0 0 C1.5 1.0625 1.5 1.0625 3 3 C3.1875 6.6875 3.1875 6.6875 3 10 C-0.00617269 6.99382731 0.40414684 4.17618402 0 0 Z " fill="#47210E" transform="translate(217,215)"/>
<path d="M0 0 C1 2 1 2 0.0625 5.125 C-0.288125 6.07375 -0.63875 7.0225 -1 8 C-1.66 7.01 -2.32 6.02 -3 5 C-2.67 4.34 -2.34 3.68 -2 3 C-2.99 2.67 -3.98 2.34 -5 2 C-3.35 1.34 -1.7 0.68 0 0 Z " fill="#54301F" transform="translate(348,213)"/>
<path d="M0 0 C1.9451 2.91765 2.45276317 4.62537285 3 8 C2.01 8 1.02 8 0 8 C-1.125 2.25 -1.125 2.25 0 0 Z " fill="#B77062" transform="translate(152,73)"/>
</svg>
