<?xml version="1.0" encoding="UTF-8"?>
<svg version="1.1" xmlns="http://www.w3.org/2000/svg" width="128" height="128">
<path d="M0 0 C0.80703369 -0.0115361 1.61406738 -0.0230722 2.44555664 -0.03495789 C5.11248729 -0.06923533 7.77918661 -0.08776146 10.44628906 -0.10327148 C11.3593708 -0.11017439 12.27245255 -0.11707729 13.21320343 -0.12418938 C18.04643423 -0.16001236 22.8795485 -0.18355748 27.71289062 -0.19726562 C32.69435751 -0.21380422 37.67440248 -0.27221804 42.65539169 -0.34040928 C46.4954145 -0.38528054 50.33509917 -0.39876647 54.17536163 -0.40388298 C56.01095606 -0.41175849 57.84654055 -0.4313488 59.68187714 -0.46310616 C75.83290397 -0.72411553 75.83290397 -0.72411553 81.08789062 3.82275391 C82.78277588 5.73573303 82.78277588 5.73573303 83.96191406 7.33813477 C84.45691406 7.83313477 84.45691406 7.83313477 84.96191406 8.33813477 C85.08360628 10.91756088 85.14052312 13.47069221 85.15478516 16.05151367 C85.16296265 16.85971558 85.17114014 17.66791748 85.17956543 18.50061035 C85.20447661 21.1886317 85.22095374 23.87659987 85.23535156 26.56469727 C85.24067524 27.48177837 85.24599892 28.39885948 85.25148392 29.34373093 C85.27824577 34.20172033 85.29760721 39.05968382 85.31201172 43.91772461 C85.32862857 48.93155574 85.37337256 53.94472556 85.42438316 58.95830727 C85.45808627 62.81542696 85.46959278 66.67239072 85.4752388 70.52964401 C85.4819474 72.37719119 85.49715932 74.22472825 85.52112961 76.07213211 C85.55283803 78.66475915 85.55280933 81.2556177 85.54541016 83.84838867 C85.56181549 84.60711273 85.57822083 85.36583679 85.59512329 86.14755249 C85.52994395 91.74966198 83.94710065 95.35983989 79.96191406 99.33813477 C75.45013639 102.39987357 71.36488051 102.77563911 66.0480957 102.7421875 C65.27817795 102.74905075 64.50826019 102.755914 63.7150116 102.76298523 C61.18384064 102.78120439 58.65329242 102.77742283 56.12207031 102.77172852 C54.35379333 102.77629271 52.58551813 102.78159899 50.81724548 102.78761292 C47.11612733 102.79653444 43.41522507 102.79413188 39.71411133 102.78417969 C34.98181774 102.77269181 30.25027055 102.79290336 25.51807499 102.82209682 C21.8676636 102.84048313 18.21743027 102.84016153 14.56698418 102.8344593 C12.82274771 102.83430638 11.07849894 102.8403265 9.33430672 102.85275078 C6.89077674 102.86770525 4.44861544 102.85695227 2.00512695 102.83984375 C1.29166107 102.84951172 0.57819519 102.85917969 -0.15689087 102.86914062 C-6.74979304 102.77295751 -10.65301181 100.553213 -15.44224548 96.10533142 C-17.56088419 92.43159955 -17.60662766 89.1899176 -17.5715332 85.06298828 C-17.58014877 84.24284241 -17.58876434 83.42269653 -17.59764099 82.57769775 C-17.62029401 79.873822 -17.61356329 77.17098331 -17.60449219 74.46704102 C-17.60972831 72.58283684 -17.61600474 70.69863529 -17.62327576 68.81443787 C-17.6336789 64.8677028 -17.62912008 60.9213283 -17.61450195 56.97460938 C-17.5973195 51.9225625 -17.62080303 46.87165352 -17.65599155 41.81973362 C-17.67797725 37.92913814 -17.67652116 34.0388144 -17.66822624 30.14817619 C-17.66740726 28.28588552 -17.67426048 26.42357479 -17.68899727 24.56134224 C-17.70646402 21.95441381 -17.69188422 19.34952311 -17.66918945 16.74267578 C-17.68088165 15.97728989 -17.69257385 15.21190399 -17.70462036 14.42332458 C-17.63630525 10.55662931 -17.11883605 7.94588493 -14.74864197 4.93785095 C-9.94887783 0.33435839 -6.52826825 0.03276355 0 0 Z " fill="#151615" transform="translate(30.0380859375,14.661865234375)"/>
<path d="M0 0 C2.33333333 0.66666667 4.66666667 1.33333333 7 2 C11.00593768 2.17218948 14.9929844 2.11843396 19 2 C18 5 18 5 15.0625 6.9375 C11.5440271 9.30269384 11.5440271 9.30269384 10 13 C9.9175 14.093125 9.835 15.18625 9.75 16.3125 C8.78122078 21.0756645 6.60050388 23.8042366 3 27 C0.80078125 28.19921875 0.80078125 28.19921875 -1 29 C-1.8131979 43.75803597 1.40354028 60.42952311 11 72 C12.75245659 76.11827298 13.31164952 79.53302356 13 84 C12 85 12 85 8.58178711 85.11352539 C7.06363012 85.11336628 5.54546771 85.10767226 4.02734375 85.09765625 C3.22970108 85.0962413 2.43205841 85.09482635 1.61024475 85.09336853 C-0.94737435 85.08775316 -3.50490718 85.07519812 -6.0625 85.0625 C-7.79231645 85.05748698 -9.52213426 85.05292373 -11.25195312 85.04882812 C-15.50133553 85.03777875 -19.75065312 85.02050386 -24 85 C-24.04579182 83.40652012 -24.07839753 81.81265783 -24.10546875 80.21875 C-24.12504639 79.33123047 -24.14462402 78.44371094 -24.16479492 77.52929688 C-23.91621195 73.71400863 -22.05054853 71.08905213 -20 68 C-12.96922388 55.6853584 -11.39662013 42.86761633 -10 29 C-10.76957031 28.72285156 -11.53914063 28.44570313 -12.33203125 28.16015625 C-15.92995049 26.5956145 -18.08600117 24.35839199 -20 21 C-20.59912734 18.71607833 -21.00008528 16.43702129 -21.4140625 14.11328125 C-22.58118881 9.90384567 -25.93464101 7.77742413 -29.3125 5.3125 C-30.1478125 4.6628125 -30.1478125 4.6628125 -31 4 C-31 3.34 -31 2.68 -31 2 C-29.87980469 2.02320313 -28.75960937 2.04640625 -27.60546875 2.0703125 C-26.13281916 2.08907237 -24.66016237 2.10727234 -23.1875 2.125 C-22.08051758 2.15013672 -22.08051758 2.15013672 -20.95117188 2.17578125 C-13.57823655 2.24250465 -7.86834793 -0.53554201 0 0 Z " fill="#F7F7F7" transform="translate(69,25)"/>
<path d="M0 0 C0.80674164 -0.01139008 1.61348328 -0.02278015 2.44467163 -0.03451538 C10.89231899 -0.14523882 19.34084228 -0.19261297 27.7890625 -0.23535156 C31.79535868 -0.25760967 35.80072082 -0.29935074 39.80664062 -0.35839844 C44.64606584 -0.4295918 49.48461337 -0.46619938 54.32453537 -0.47846985 C56.1657313 -0.48885425 58.00690157 -0.51124015 59.84779739 -0.54606628 C76.05568859 -0.83677092 76.05568859 -0.83677092 81.31933594 3.45703125 C83.93938219 6.20143229 84.66034917 8.49134607 85.18896484 12.22460938 C84.19896484 12.88460938 83.20896484 13.54460938 82.18896484 14.22460938 C82.18896484 13.56460937 82.18896484 12.90460937 82.18896484 12.22460938 C81.22990234 12.06992187 81.22990234 12.06992187 80.25146484 11.91210938 C79.57083984 11.68523438 78.89021484 11.45835938 78.18896484 11.22460938 C77.69396484 9.73960938 77.69396484 9.73960938 77.18896484 8.22460938 C68.98900268 7.09060227 60.82955396 7.04291905 52.56787109 7.02148438 C51.82735945 7.018657 51.0868478 7.01582962 50.32389641 7.01291656 C46.40904266 6.99801235 42.49422496 6.98872616 38.5793457 6.984375 C34.56388823 6.97888635 30.54876909 6.9548249 26.5334177 6.92640305 C23.4182186 6.90767551 20.30309966 6.90256584 17.18784904 6.90103912 C15.70844602 6.89803762 14.22904354 6.89009512 12.74969673 6.87685394 C0.57262652 6.53040186 0.57262652 6.53040186 -10.81103516 10.22460938 C-12.09414911 12.24244618 -12.09414911 12.24244618 -12.81103516 14.22460938 C-14.13103516 13.89460938 -15.45103516 13.56460937 -16.81103516 13.22460938 C-16.57104961 7.10497803 -16.57104961 7.10497803 -14.47900391 4.68164062 C-9.51036727 0.5592438 -6.24608684 0.06038081 0 0 Z " fill="#989998" transform="translate(29.81103515625,14.775390625)"/>
<path d="M0 0 C1.18632774 -0.00503792 1.18632774 -0.00503792 2.3966217 -0.01017761 C5.00279321 -0.01965196 7.60890025 -0.02162884 10.21508789 -0.02270508 C12.03202846 -0.0259197 13.84896878 -0.02928393 15.66590881 -0.03279114 C19.47128906 -0.03877332 23.27664663 -0.04063193 27.08203125 -0.04003906 C31.95211409 -0.0399374 36.82205126 -0.05359782 41.69209957 -0.07081127 C45.44365606 -0.08194194 49.19517742 -0.08395795 52.94674873 -0.08342934 C54.74204575 -0.08460752 56.53734373 -0.08902025 58.33262444 -0.0967617 C60.84555081 -0.10658469 63.35816205 -0.10367466 65.87109375 -0.09765625 C66.97709427 -0.10608551 66.97709427 -0.10608551 68.10543823 -0.11468506 C73.41355256 -0.08246309 78.12558951 0.27060904 82.00024414 4.14526367 C81.75024414 6.70776367 81.75024414 6.70776367 81.00024414 9.14526367 C80.34024414 9.47526367 79.68024414 9.80526367 79.00024414 10.14526367 C79.00024414 9.48526367 79.00024414 8.82526367 79.00024414 8.14526367 C78.36086914 8.04213867 77.72149414 7.93901367 77.06274414 7.83276367 C76.38211914 7.60588867 75.70149414 7.37901367 75.00024414 7.14526367 C74.50524414 5.66026367 74.50524414 5.66026367 74.00024414 4.14526367 C65.80028197 3.01125657 57.64083326 2.96357335 49.37915039 2.94213867 C48.63863874 2.93931129 47.8981271 2.93648392 47.1351757 2.93357086 C43.22032196 2.91866665 39.30550426 2.90938046 35.390625 2.9050293 C31.37516753 2.89954064 27.36004839 2.8754792 23.344697 2.84705734 C20.22949789 2.82832981 17.11437896 2.82322014 13.99912834 2.82169342 C12.51972532 2.81869192 11.04032284 2.81074942 9.56097603 2.79750824 C-2.61609418 2.45105616 -2.61609418 2.45105616 -13.99975586 6.14526367 C-15.28286981 8.16310048 -15.28286981 8.16310048 -15.99975586 10.14526367 C-17.31975586 9.81526367 -18.63975586 9.48526367 -19.99975586 9.14526367 C-19.99975586 7.49526367 -19.99975586 5.84526367 -19.99975586 4.14526367 C-13.16214333 1.06163449 -7.55212676 -0.00462904 0 0 Z " fill="#6E6F6F" transform="translate(32.999755859375,18.854736328125)"/>
<path d="M0 0 C0.81637939 -0.00335861 1.63275879 -0.00671722 2.47387695 -0.01017761 C5.18051665 -0.01969999 7.88709458 -0.02163125 10.59375 -0.02270508 C12.46940131 -0.02591634 14.34505236 -0.02928031 16.22070312 -0.03279114 C20.15495383 -0.03878533 24.08918255 -0.0406307 28.0234375 -0.04003906 C33.07448003 -0.03993733 38.12538235 -0.05360015 43.1763916 -0.07081127 C47.05046237 -0.08190676 50.92449895 -0.08395904 54.79858398 -0.08342934 C56.66138188 -0.08461275 58.52418056 -0.08905464 60.38696289 -0.0967617 C62.98724316 -0.10651399 65.58721521 -0.10370275 68.1875 -0.09765625 C68.96262939 -0.10327576 69.73775879 -0.10889526 70.53637695 -0.11468506 C75.86543324 -0.08305309 75.86543324 -0.08305309 78.09375 2.14526367 C73.34375 3.27026367 73.34375 3.27026367 71.09375 2.14526367 C68.66303131 2.04728424 66.26102161 2.00893527 63.83007812 2.01586914 C62.70792152 2.01324066 62.70792152 2.01324066 61.56309509 2.01055908 C59.08370665 2.00614835 56.60438921 2.00907583 54.125 2.01245117 C52.40629055 2.01177791 50.68758119 2.0108077 48.96887207 2.009552 C45.36416722 2.00807608 41.75948713 2.01022619 38.15478516 2.01489258 C33.52751953 2.0205898 28.9003119 2.01731023 24.2730484 2.01132011 C20.72324179 2.00771165 17.17344899 2.00885441 13.62364197 2.01144791 C11.91714979 2.01211638 10.21065637 2.0112915 8.50416565 2.00896835 C6.12188378 2.00643717 3.73969666 2.01028903 1.35742188 2.01586914 C0.64774765 2.01384491 -0.06192657 2.01182068 -0.79310608 2.00973511 C-4.4733458 1.97707818 -4.4733458 1.97707818 -7.90625 3.14526367 C-8.56625 2.48526367 -9.22625 1.82526367 -9.90625 1.14526367 C-6.77531661 -0.42020303 -3.43716854 -0.00200957 0 0 Z " fill="#A9A9A9" transform="translate(29.90625,14.854736328125)"/>
<path d="M0 0 C0.80052292 -0.00014603 1.60104584 -0.00029205 2.42582703 -0.0004425 C5.0608495 0.00025184 7.69580049 0.00802183 10.33081055 0.01586914 C12.16212424 0.01773502 13.99343844 0.01915812 15.82475281 0.02015686 C20.63666165 0.02396867 25.44854014 0.03378754 30.26043701 0.04486084 C35.17386464 0.0551037 40.08729719 0.05966064 45.00073242 0.06469727 C54.63551135 0.07541102 64.2702678 0.09247139 73.9050293 0.11352539 C73.9050293 0.44352539 73.9050293 0.77352539 73.9050293 1.11352539 C72.40951538 1.12898659 72.40951538 1.12898659 70.88378906 1.14476013 C61.46789099 1.24270161 52.05205594 1.34545432 42.63626099 1.45286465 C37.79602226 1.50792628 32.95577734 1.56131853 28.11547852 1.61083984 C23.44053166 1.65873178 18.76565368 1.71108179 14.09078979 1.76646614 C12.31112391 1.78677774 10.53143923 1.80550847 8.7517395 1.82259941 C6.25068404 1.84689321 3.74975569 1.87691088 1.2487793 1.90820312 C0.15580788 1.91683632 0.15580788 1.91683632 -0.95924377 1.92564392 C-5.73988782 1.99321634 -10.35912739 2.45026884 -15.0949707 3.11352539 C-15.0949707 3.77352539 -15.0949707 4.43352539 -15.0949707 5.11352539 C-16.7449707 5.44352539 -18.3949707 5.77352539 -20.0949707 6.11352539 C-20.0949707 5.45352539 -20.0949707 4.79352539 -20.0949707 4.11352539 C-13.21555713 1.01104476 -7.59989297 -0.03649077 0 0 Z " fill="#787978" transform="translate(33.094970703125,18.886474609375)"/>
<path d="M0 0 C0.495 0.99 0.495 0.99 1 2 C0.01 2.33 -0.98 2.66 -2 3 C-2.495 2.505 -2.495 2.505 -3 2 C-5.43299787 1.87507611 -7.83904923 1.81398493 -10.27368164 1.79467773 C-11.03460617 1.78477814 -11.7955307 1.77487854 -12.57951355 1.76467896 C-15.1063623 1.73297376 -17.63322988 1.7082711 -20.16015625 1.68359375 C-21.90751141 1.66303199 -23.65486151 1.64203574 -25.40220642 1.62062073 C-30.01026318 1.56531959 -34.61836541 1.51594592 -39.22650146 1.46777344 C-43.92513089 1.41761697 -48.62369394 1.36190042 -53.32226562 1.30664062 C-62.54812044 1.19896076 -71.77403278 1.09753777 -81 1 C-81 0.67 -81 0.34 -81 0 C-71.02961562 -0.15385358 -61.05916465 -0.30203463 -51.08858871 -0.4429636 C-46.45891452 -0.50858017 -41.8292861 -0.57615433 -37.19970703 -0.64819336 C-32.73237033 -0.71763592 -28.2649866 -0.78194793 -23.7975235 -0.84269524 C-22.09265712 -0.86678082 -20.38781588 -0.89271863 -18.68300629 -0.92053413 C-16.2961978 -0.95916145 -13.90938505 -0.99121734 -11.52246094 -1.02172852 C-10.81683517 -1.03467453 -10.11120941 -1.04762054 -9.38420105 -1.06095886 C-2.88766035 -1.13095142 -2.88766035 -1.13095142 0 0 Z " fill="#8A8A8A" transform="translate(110,18)"/>
<path d="M0 0 C0.86882812 0.0721875 1.73765625 0.144375 2.6328125 0.21875 C3.78523438 0.3115625 4.93765625 0.404375 6.125 0.5 C7.26195313 0.5928125 8.39890625 0.685625 9.5703125 0.78125 C12.72597149 0.9825221 15.83921165 1.03842904 19 1 C18.67 1.99 18.34 2.98 18 4 C17.01 4.33 16.02 4.66 15 5 C15 4.34 15 3.68 15 3 C14.00419922 3.03480469 14.00419922 3.03480469 12.98828125 3.0703125 C4.21792619 3.24956063 4.21792619 3.24956063 0 1 C0 0.67 0 0.34 0 0 Z " fill="#AAABAA" transform="translate(69,26)"/>
<path d="M0 0 C-0.99 0.33 -1.98 0.66 -3 1 C-4.20882096 3.00016466 -4.20882096 3.00016466 -5 5 C-6.32 4.67 -7.64 4.34 -9 4 C-8.67 2.68 -8.34 1.36 -8 0 C-4.94736336 -0.98120464 -3.05263664 -0.98120464 0 0 Z " fill="#525352" transform="translate(22,24)"/>
<path d="M0 0 C4.95 0.33 9.9 0.66 15 1 C15 1.33 15 1.66 15 2 C12.87562788 2.19448477 10.75046809 2.38038289 8.625 2.5625 C7.44164062 2.66691406 6.25828125 2.77132813 5.0390625 2.87890625 C2 3 2 3 0 2 C0 1.34 0 0.68 0 0 Z " fill="#B9BAB9" transform="translate(38,27)"/>
<path d="M0 0 C-0.66 1.32 -1.32 2.64 -2 4 C-2.33 3.34 -2.66 2.68 -3 2 C-5.02463255 1.34786708 -5.02463255 1.34786708 -7 1 C-7 0.67 -7 0.34 -7 0 C-2.25 -1.125 -2.25 -1.125 0 0 Z " fill="#4E4F4E" transform="translate(115,25)"/>
</svg>
