<?xml version="1.0" encoding="UTF-8"?>
<svg version="1.1" xmlns="http://www.w3.org/2000/svg" width="48" height="48">
<path d="M0 0 C1.31484375 -0.01740234 1.31484375 -0.01740234 2.65625 -0.03515625 C7.87032634 -0.01159868 11.4517755 0.54732095 16 3.375 C15.97716246 7.43873807 15.89980036 11.49967576 15.8125 15.5625 C15.80669922 16.71298828 15.80089844 17.86347656 15.79492188 19.04882812 C15.57144783 27.61533337 15.57144783 27.61533337 12.69921875 31.43359375 C11.80847656 32.07425781 10.91773437 32.71492188 10 33.375 C9.319375 34.05304687 8.63875 34.73109375 7.9375 35.4296875 C7.298125 36.03039063 6.65875 36.63109375 6 37.25 C5.360625 37.86617187 4.72125 38.48234375 4.0625 39.1171875 C2 40.375 2 40.375 -0.42578125 40.3125 C-3.55059 39.17448164 -5.62585001 37.61597715 -8.1875 35.5 C-9.04730469 34.80132812 -9.90710938 34.10265625 -10.79296875 33.3828125 C-13.43244555 30.98158936 -14.88371558 29.33617176 -15.31884766 25.73950195 C-15.35026855 24.70784912 -15.38168945 23.67619629 -15.4140625 22.61328125 C-15.45273438 21.49501953 -15.49140625 20.37675781 -15.53125 19.22460938 C-15.5621875 18.05736328 -15.593125 16.89011719 -15.625 15.6875 C-15.66367188 14.50865234 -15.70234375 13.32980469 -15.7421875 12.11523438 C-15.83654391 9.20198023 -15.92213161 6.28873393 -16 3.375 C-10.61534005 0.02730023 -6.13751073 -0.08123176 0 0 Z " fill="#296592" transform="translate(24,3.625)"/>
<path d="M0 0 C4.49562363 -0.30634573 4.49562363 -0.30634573 6.80078125 1.09375 C8.20052083 2.39583333 9.60026042 3.69791667 11 5 C14.60846776 3.76205327 14.60846776 3.76205327 17.5 1.375 C19.61480104 -0.56356762 21.22122752 -0.09924187 24 0 C24.10845027 3.04263267 24.18752063 6.08136204 24.25 9.125 C24.30027344 10.40890625 24.30027344 10.40890625 24.3515625 11.71875 C24.44005895 17.4710192 23.784351 20.59455322 20 25 C19.67 25 19.34 25 19 25 C18.67 19.72 18.34 14.44 18 9 C15.70424397 11.29575603 15.67660401 12.00842525 15.375 15.125 C15.25125 16.40375 15.1275 17.6825 15 19 C13.02 19 11.04 19 9 19 C8.8046875 16.98177083 8.609375 14.96354167 8.4140625 12.9453125 C8.13625251 10.77331755 8.13625251 10.77331755 6 9 C5.67 14.28 5.34 19.56 5 25 C0.06111184 20.06111184 0.06111184 20.06111184 -0.11352539 17.02880859 C-0.10828857 16.24328613 -0.10305176 15.45776367 -0.09765625 14.6484375 C-0.09443359 13.79765625 -0.09121094 12.946875 -0.08789062 12.0703125 C-0.07951172 11.18085938 -0.07113281 10.29140625 -0.0625 9.375 C-0.05798828 8.4778125 -0.05347656 7.580625 -0.04882812 6.65625 C-0.03702591 4.43743352 -0.02056155 2.21874982 0 0 Z " fill="#F9FBFC" transform="translate(12,9)"/>
<path d="M0 0 C1.52625 0.061875 3.0525 0.12375 4.625 0.1875 C4.625 3.8175 4.625 7.4475 4.625 11.1875 C2.96484375 9.91796875 1.3046875 8.6484375 -0.35546875 7.37890625 C-2.68134601 6.00677363 -4.72012905 5.58641843 -7.375 5.1875 C-7.28780537 8.25133902 -7.18089603 11.31234051 -7.0625 14.375 C-7.03994141 15.23931641 -7.01738281 16.10363281 -6.99414062 16.99414062 C-6.95869141 17.83525391 -6.92324219 18.67636719 -6.88671875 19.54296875 C-6.86053467 20.31278076 -6.83435059 21.08259277 -6.80737305 21.87573242 C-6.39800601 24.80664475 -6.39800601 24.80664475 -3.375 29.1875 C-3.045 23.9075 -2.715 18.6275 -2.375 13.1875 C1.625 16.1875 1.625 16.1875 2.015625 18.23046875 C1.88541667 20.21614583 1.75520833 22.20182292 1.625 24.1875 C2.615 24.1875 3.605 24.1875 4.625 24.1875 C4.625 29.4675 4.625 34.7475 4.625 40.1875 C1.33932231 38.54466116 -1.13437123 36.97828993 -4 34.75 C-4.77601562 34.15316406 -5.55203125 33.55632813 -6.3515625 32.94140625 C-8.96333274 30.67753591 -10.2738052 29.02394556 -10.69384766 25.55200195 C-10.72526855 24.52034912 -10.75668945 23.48869629 -10.7890625 22.42578125 C-10.82773438 21.30751953 -10.86640625 20.18925781 -10.90625 19.03710938 C-10.9371875 17.86986328 -10.968125 16.70261719 -11 15.5 C-11.03867188 14.32115234 -11.07734375 13.14230469 -11.1171875 11.92773438 C-11.21154391 9.01448023 -11.29713161 6.10123393 -11.375 3.1875 C-7.38837674 0.96036882 -4.57607927 -0.18551673 0 0 Z " fill="#0C77B8" transform="translate(19.375,3.8125)"/>
</svg>
